<svg id="svg" version="1.1" xmlns="http://www.w3.org/2000/svg" xmlns:xlink="http://www.w3.org/1999/xlink" width="400" height="400" viewBox="0, 0, 400,400"><g id="svgg"><path id="path0" d="M246.856 3.544 C 246.589 3.905,246.495 3.947,246.647 3.638 C 246.829 3.269,246.763 3.176,246.455 3.366 C 246.198 3.525,246.095 3.831,246.228 4.045 C 246.562 4.586,245.652 5.595,245.042 5.361 C 244.767 5.255,244.334 5.626,244.080 6.185 C 243.825 6.743,243.343 7.200,243.009 7.200 C 242.674 7.200,242.400 7.391,242.400 7.624 C 242.400 7.857,242.227 7.940,242.015 7.809 C 241.389 7.423,240.065 9.044,239.785 10.541 C 239.618 11.429,239.251 11.998,238.762 12.126 C 237.848 12.365,237.775 11.882,238.600 11.057 C 238.930 10.727,239.200 10.271,239.200 10.043 C 239.200 9.815,238.788 10.027,238.285 10.514 C 237.782 11.001,237.433 11.675,237.509 12.012 C 237.696 12.840,236.156 14.623,235.864 13.916 C 235.704 13.529,235.507 13.576,235.076 14.107 C 234.715 14.551,234.242 14.714,233.804 14.546 C 233.203 14.316,233.169 14.394,233.553 15.113 C 234.205 16.331,234.114 16.515,232.997 16.235 C 232.342 16.071,232.030 16.142,232.097 16.442 C 232.154 16.694,231.950 16.991,231.644 17.102 C 231.272 17.237,231.193 17.135,231.406 16.790 C 231.616 16.451,231.565 16.375,231.255 16.566 C 230.998 16.725,230.891 17.024,231.019 17.231 C 231.293 17.675,230.073 19.007,229.718 18.651 C 229.327 18.260,228.428 19.207,228.647 19.778 C 228.829 20.252,227.983 20.868,227.000 20.974 C 226.780 20.998,226.657 21.347,226.727 21.749 C 226.803 22.187,226.682 22.374,226.427 22.217 C 226.190 22.070,226.000 22.249,226.000 22.619 C 226.000 23.032,225.783 23.202,225.429 23.067 C 225.115 22.946,224.643 23.107,224.380 23.424 C 224.117 23.741,224.014 24.000,224.151 24.000 C 224.288 24.000,224.085 24.331,223.700 24.737 C 223.315 25.142,222.873 25.406,222.717 25.323 C 222.561 25.241,222.155 25.714,221.814 26.373 C 221.374 27.224,221.001 27.499,220.531 27.318 C 220.086 27.148,219.964 27.218,220.158 27.532 C 220.317 27.789,220.287 28.000,220.091 28.000 C 219.895 28.000,219.498 28.444,219.207 28.986 C 218.917 29.529,218.534 29.883,218.357 29.773 C 218.179 29.664,217.755 30.114,217.414 30.773 C 216.974 31.624,216.601 31.899,216.131 31.718 C 215.686 31.548,215.564 31.618,215.758 31.932 C 215.919 32.192,215.829 32.400,215.557 32.400 C 215.287 32.400,215.172 32.505,215.300 32.633 C 215.667 33.000,214.257 34.282,213.700 34.088 C 213.425 33.993,213.178 34.114,213.150 34.357 C 213.123 34.601,213.078 34.986,213.050 35.213 C 213.023 35.441,212.550 35.860,212.000 36.146 C 211.450 36.432,211.041 36.863,211.090 37.103 C 211.140 37.344,210.645 37.779,209.990 38.068 C 209.336 38.358,208.778 38.731,208.750 38.898 C 208.722 39.064,208.678 39.386,208.650 39.613 C 208.623 39.841,208.150 40.260,207.600 40.546 C 207.050 40.832,206.641 41.263,206.690 41.503 C 206.740 41.744,206.245 42.179,205.590 42.468 C 204.486 42.957,204.223 43.309,204.358 44.117 C 204.387 44.291,203.914 44.651,203.306 44.917 C 202.477 45.279,202.233 45.632,202.332 46.329 C 202.640 48.509,205.045 50.898,211.044 54.988 C 223.566 63.526,235.899 76.716,246.398 92.800 C 247.601 94.644,253.538 106.986,253.805 108.200 C 253.951 108.860,254.482 110.480,254.986 111.800 C 256.393 115.483,257.634 120.170,258.436 124.830 C 258.837 127.157,259.362 129.857,259.602 130.830 C 260.773 135.563,260.483 156.288,259.162 162.327 C 258.954 163.278,258.602 165.438,258.379 167.127 C 257.925 170.569,256.294 177.954,255.315 181.000 C 254.962 182.100,254.357 184.260,253.971 185.800 C 253.585 187.340,252.612 190.400,251.809 192.600 C 251.007 194.800,250.015 197.590,249.606 198.800 C 248.769 201.280,247.109 205.393,245.965 207.826 C 245.544 208.721,245.200 209.580,245.200 209.737 C 245.200 210.097,242.423 215.976,238.368 224.200 C 234.363 232.322,227.893 243.970,223.400 251.145 C 222.740 252.199,221.840 253.641,221.400 254.350 C 220.371 256.007,213.329 266.618,211.014 270.000 C 207.415 275.258,206.756 276.180,206.451 276.388 C 206.280 276.505,205.354 277.770,204.394 279.200 C 203.433 280.630,201.827 282.824,200.824 284.076 C 199.821 285.328,198.165 287.488,197.145 288.876 C 193.809 293.416,189.513 298.934,186.529 302.514 C 184.918 304.446,183.594 306.156,183.587 306.314 C 183.580 306.471,183.414 307.838,183.219 309.352 C 182.858 312.155,183.000 313.371,183.642 312.974 C 183.839 312.852,184.000 313.044,184.000 313.400 C 184.000 313.756,184.160 313.949,184.355 313.828 C 184.550 313.707,184.685 313.922,184.655 314.304 C 184.621 314.738,184.862 314.979,185.296 314.945 C 185.678 314.915,185.904 315.031,185.798 315.203 C 185.692 315.375,185.885 315.624,186.228 315.755 C 186.570 315.887,186.751 316.155,186.630 316.352 C 186.508 316.548,186.632 316.894,186.904 317.121 C 187.389 317.523,187.624 317.600,188.363 317.600 C 188.562 317.600,188.624 317.988,188.500 318.463 C 188.345 319.054,188.420 319.235,188.737 319.039 C 188.992 318.882,189.200 318.956,189.200 319.203 C 189.200 319.465,189.521 319.552,189.966 319.411 C 190.946 319.100,191.516 319.980,190.714 320.566 C 190.197 320.944,190.189 321.087,190.662 321.529 C 190.968 321.814,191.113 322.217,190.985 322.424 C 190.857 322.631,190.954 322.800,191.200 322.800 C 191.446 322.800,191.520 323.025,191.365 323.300 C 191.144 323.692,191.195 323.696,191.604 323.317 C 192.029 322.924,192.031 322.719,191.614 322.217 C 191.174 321.687,191.254 321.600,192.184 321.600 C 193.191 321.600,193.252 321.697,193.075 323.014 C 192.906 324.264,192.957 324.369,193.517 323.914 C 194.064 323.470,194.109 323.508,193.851 324.200 C 193.612 324.842,193.652 324.901,194.056 324.500 C 194.782 323.779,195.395 323.883,194.781 324.623 C 194.359 325.131,194.359 325.223,194.782 325.123 C 195.067 325.055,195.391 325.250,195.502 325.556 C 195.626 325.896,195.529 326.003,195.252 325.832 C 195.003 325.678,194.800 325.733,194.800 325.953 C 194.800 326.173,194.983 326.466,195.207 326.604 C 195.430 326.742,195.522 327.002,195.411 327.182 C 195.119 327.655,196.286 328.518,196.792 328.205 C 197.027 328.059,197.170 328.179,197.110 328.470 C 197.049 328.762,197.238 328.951,197.530 328.890 C 197.821 328.830,197.953 328.952,197.823 329.162 C 197.693 329.373,197.773 329.660,198.000 329.800 C 198.227 329.940,198.292 330.251,198.145 330.489 C 197.997 330.728,198.041 330.822,198.243 330.697 C 198.756 330.380,200.133 331.461,199.834 331.946 C 199.698 332.165,199.798 332.475,200.055 332.634 C 200.366 332.826,200.425 332.734,200.232 332.362 C 200.072 332.053,200.212 332.133,200.544 332.540 C 200.875 332.947,201.343 333.159,201.583 333.010 C 201.823 332.862,201.994 332.889,201.963 333.070 C 201.931 333.252,201.949 333.535,202.003 333.700 C 202.056 333.865,202.123 334.225,202.150 334.500 C 202.178 334.775,202.380 335.016,202.600 335.035 C 203.560 335.117,204.430 335.745,204.247 336.222 C 204.012 336.834,204.940 337.726,205.367 337.300 C 205.664 337.003,206.570 338.264,206.590 339.000 C 206.595 339.220,206.780 339.416,207.000 339.435 C 207.960 339.517,208.830 340.145,208.647 340.622 C 208.412 341.234,209.340 342.126,209.767 341.700 C 210.064 341.403,210.970 342.664,210.990 343.400 C 210.995 343.620,211.180 343.816,211.400 343.835 C 212.275 343.910,213.182 344.505,212.963 344.859 C 212.628 345.401,213.563 346.389,214.184 346.151 C 214.495 346.031,214.927 346.439,215.240 347.146 C 215.531 347.804,215.899 348.262,216.057 348.165 C 216.215 348.067,216.460 348.173,216.600 348.400 C 216.740 348.627,217.051 348.692,217.289 348.545 C 217.557 348.379,217.608 348.464,217.422 348.765 C 217.246 349.049,217.429 349.505,217.860 349.856 C 218.267 350.188,218.347 350.328,218.038 350.168 C 217.678 349.981,217.575 350.036,217.751 350.321 C 217.902 350.565,218.267 350.673,218.561 350.560 C 219.050 350.372,219.666 351.206,219.774 352.200 C 219.798 352.420,220.147 352.543,220.549 352.473 C 221.045 352.387,221.182 352.506,220.975 352.841 C 220.759 353.189,220.872 353.258,221.355 353.073 C 221.735 352.927,221.940 352.974,221.814 353.177 C 221.541 353.618,223.189 354.854,223.661 354.563 C 223.842 354.450,223.884 354.638,223.753 354.979 C 223.594 355.393,223.745 355.600,224.206 355.600 C 224.756 355.600,224.802 355.716,224.430 356.164 C 224.109 356.550,224.094 356.811,224.381 356.988 C 224.611 357.131,224.800 357.125,224.800 356.975 C 224.800 356.825,225.105 356.949,225.477 357.251 C 225.925 357.615,226.053 357.633,225.856 357.305 C 225.657 356.974,225.754 356.884,226.148 357.036 C 226.872 357.313,227.342 358.400,226.738 358.400 C 226.443 358.400,226.456 358.586,226.780 358.976 C 227.043 359.293,227.551 359.440,227.909 359.303 C 228.327 359.143,228.388 358.996,228.080 358.893 C 227.515 358.705,227.431 358.000,227.973 358.000 C 228.178 358.000,228.460 358.360,228.600 358.800 C 228.762 359.311,229.205 359.600,229.827 359.600 C 230.724 359.600,231.135 360.331,230.561 360.906 C 230.203 361.264,229.171 360.771,229.423 360.363 C 229.543 360.168,229.358 360.118,229.011 360.251 C 228.525 360.437,228.485 360.620,228.835 361.042 C 229.086 361.344,229.438 361.500,229.618 361.389 C 229.798 361.278,230.063 361.379,230.208 361.613 C 230.383 361.897,230.631 361.906,230.949 361.642 C 231.749 360.978,232.989 361.397,233.134 362.381 C 233.231 363.043,233.123 363.207,232.734 362.986 C 232.365 362.777,232.324 362.815,232.600 363.111 C 232.820 363.346,233.540 363.597,234.200 363.669 C 235.414 363.802,235.498 363.987,234.962 365.366 C 234.753 365.901,234.805 366.044,235.132 365.842 C 235.389 365.683,235.600 365.731,235.600 365.949 C 235.600 366.166,236.005 366.402,236.500 366.472 C 237.088 366.556,237.361 366.835,237.287 367.279 C 237.225 367.653,237.536 368.152,237.978 368.388 C 238.421 368.625,239.228 369.264,239.773 369.809 C 240.318 370.354,241.061 370.800,241.425 370.800 C 241.833 370.800,242.002 371.018,241.867 371.371 C 241.746 371.685,241.907 372.157,242.224 372.420 C 242.541 372.683,242.800 372.764,242.800 372.600 C 242.800 372.436,243.068 372.524,243.395 372.796 C 243.736 373.079,244.418 373.182,244.995 373.037 C 245.742 372.849,246.000 372.943,246.000 373.400 C 246.000 373.868,245.743 373.951,244.926 373.746 C 243.972 373.506,243.916 373.545,244.426 374.096 C 244.742 374.437,245.147 374.627,245.327 374.518 C 245.506 374.409,245.925 374.653,246.256 375.060 C 246.588 375.467,246.745 375.575,246.606 375.300 C 246.455 375.002,246.614 374.800,247.000 374.800 C 247.356 374.800,247.544 374.968,247.417 375.172 C 247.291 375.377,247.373 375.660,247.600 375.800 C 247.827 375.940,247.909 376.223,247.783 376.428 C 247.561 376.787,248.095 376.957,249.070 376.837 C 249.328 376.805,249.654 376.964,249.793 377.189 C 249.933 377.415,250.407 377.600,250.847 377.600 C 251.287 377.600,251.546 377.436,251.422 377.235 C 251.298 377.034,251.512 376.921,251.898 376.984 C 252.832 377.135,253.606 376.481,253.333 375.771 C 253.189 375.395,253.385 375.200,253.908 375.200 C 254.669 375.200,256.067 374.019,255.349 373.982 C 255.157 373.973,255.690 373.601,256.533 373.156 C 257.554 372.617,257.990 372.152,257.840 371.761 C 257.696 371.384,257.974 371.038,258.618 370.793 C 259.169 370.584,259.728 370.133,259.859 369.791 C 259.990 369.450,260.630 368.895,261.281 368.558 C 262.051 368.160,262.385 367.738,262.236 367.351 C 262.082 366.948,262.386 366.624,263.175 366.349 C 263.912 366.092,264.492 365.512,264.749 364.775 C 265.033 363.959,265.343 363.680,265.778 363.847 C 266.342 364.064,266.598 363.614,266.441 362.681 C 266.412 362.506,266.917 362.178,267.565 361.952 C 268.335 361.684,268.891 361.115,269.173 360.306 C 269.410 359.626,269.721 359.188,269.865 359.332 C 270.227 359.694,271.243 358.793,270.970 358.352 C 270.849 358.155,271.076 357.878,271.475 357.736 C 272.665 357.313,273.600 356.327,273.600 355.495 C 273.600 354.973,273.795 354.789,274.187 354.940 C 274.883 355.207,275.426 354.482,275.265 353.503 C 275.181 352.989,275.332 352.876,275.841 353.071 C 276.276 353.238,276.435 353.180,276.270 352.913 C 276.121 352.673,276.309 352.514,276.704 352.545 C 277.174 352.582,277.359 352.359,277.273 351.860 C 277.197 351.416,277.317 351.225,277.573 351.383 C 277.823 351.538,278.000 351.305,278.000 350.824 C 278.000 350.344,278.261 350.000,278.624 350.000 C 279.016 350.000,279.136 350.185,278.947 350.500 C 278.745 350.835,278.871 350.818,279.328 350.447 C 279.850 350.023,279.904 349.766,279.556 349.347 C 279.126 348.829,279.350 348.620,280.168 348.775 C 280.370 348.814,280.328 348.595,280.074 348.290 C 279.722 347.865,279.749 347.553,280.187 346.967 C 280.742 346.225,280.753 346.228,280.545 347.055 C 280.276 348.124,280.944 348.591,281.604 347.796 C 281.931 347.401,281.951 347.200,281.662 347.200 C 281.421 347.200,281.333 346.920,281.464 346.577 C 281.601 346.220,281.962 346.053,282.309 346.187 C 283.322 346.575,284.457 345.254,283.941 344.289 C 283.577 343.609,283.612 343.519,284.158 343.729 C 284.686 343.931,284.763 343.791,284.562 342.989 C 284.422 342.432,284.488 342.000,284.712 342.000 C 284.932 342.000,285.086 342.225,285.056 342.500 C 285.025 342.775,285.180 343.000,285.400 343.000 C 285.620 343.000,285.755 342.865,285.700 342.700 C 285.645 342.535,285.791 342.400,286.024 342.400 C 286.257 342.400,286.352 342.246,286.236 342.058 C 286.120 341.871,286.487 341.506,287.052 341.249 C 287.628 340.987,287.991 340.553,287.879 340.262 C 287.770 339.976,288.022 339.529,288.440 339.268 C 288.858 339.007,289.200 338.525,289.200 338.197 C 289.200 337.868,289.557 337.600,289.992 337.600 C 290.493 337.600,290.873 337.250,291.023 336.650 C 291.154 336.128,291.682 335.509,292.196 335.275 C 292.710 335.040,293.242 334.497,293.379 334.068 C 293.515 333.638,293.980 333.194,294.411 333.081 C 294.843 332.968,295.322 332.544,295.476 332.138 C 295.772 331.355,296.628 330.362,296.986 330.386 C 297.104 330.394,297.194 330.304,297.186 330.186 C 297.163 329.846,298.135 328.970,299.119 328.443 C 299.616 328.177,299.937 327.821,299.832 327.651 C 299.637 327.337,301.236 325.770,301.600 325.918 C 301.710 325.963,301.822 325.820,301.850 325.600 C 301.877 325.380,301.944 325.065,301.997 324.900 C 302.051 324.735,302.076 324.471,302.052 324.314 C 302.029 324.157,302.307 324.143,302.670 324.282 C 303.130 324.459,303.238 324.385,303.025 324.041 C 302.818 323.705,302.957 323.587,303.460 323.673 C 303.920 323.752,304.156 323.592,304.083 323.250 C 304.019 322.948,304.624 322.116,305.427 321.401 C 306.278 320.644,306.713 319.993,306.469 319.842 C 306.050 319.584,306.126 318.366,306.611 317.582 C 306.752 317.354,307.235 317.284,307.684 317.427 C 308.228 317.599,308.409 317.538,308.226 317.243 C 308.071 316.991,308.222 316.800,308.576 316.800 C 308.919 316.800,309.200 316.609,309.200 316.376 C 309.200 316.143,309.408 316.081,309.662 316.238 C 309.949 316.416,310.015 316.348,309.836 316.059 C 309.677 315.802,309.816 315.492,310.147 315.365 C 310.475 315.239,310.927 314.612,311.150 313.972 C 311.433 313.158,311.743 312.880,312.178 313.047 C 312.740 313.263,312.996 312.819,312.844 311.891 C 312.817 311.721,313.208 311.425,313.714 311.233 C 314.973 310.754,315.740 309.742,315.439 308.957 C 315.246 308.456,315.372 308.352,315.979 308.510 C 316.781 308.720,317.805 307.939,317.340 307.473 C 317.200 307.333,317.281 306.984,317.520 306.696 C 317.796 306.363,317.819 305.960,317.583 305.587 C 316.985 304.641,317.122 304.451,318.600 304.174 C 319.559 303.994,320.000 303.693,320.000 303.220 C 320.000 302.839,320.445 302.326,320.989 302.078 C 321.533 301.830,322.093 301.168,322.234 300.606 C 322.397 299.959,322.730 299.625,323.145 299.693 C 323.505 299.752,323.755 299.575,323.700 299.300 C 323.645 299.025,323.799 298.800,324.043 298.800 C 324.286 298.800,324.378 298.521,324.247 298.179 C 324.111 297.823,324.178 297.663,324.405 297.803 C 324.622 297.937,324.800 297.837,324.800 297.581 C 324.800 297.304,325.080 297.222,325.488 297.378 C 325.866 297.524,326.046 297.512,325.887 297.354 C 325.728 297.195,325.914 296.704,326.299 296.264 C 326.712 295.792,326.769 295.598,326.438 295.793 C 326.021 296.039,325.967 295.979,326.228 295.562 C 326.422 295.253,326.532 294.707,326.473 294.349 C 326.414 293.991,326.638 293.594,326.970 293.467 C 327.855 293.127,328.139 293.880,327.308 294.363 C 326.877 294.615,326.804 294.780,327.124 294.788 C 327.435 294.795,327.525 295.003,327.347 295.300 C 327.140 295.644,327.256 295.630,327.719 295.255 C 328.089 294.955,328.300 294.562,328.189 294.382 C 328.078 294.202,328.170 293.942,328.393 293.804 C 328.617 293.666,328.800 293.097,328.800 292.539 C 328.800 291.884,329.066 291.456,329.550 291.329 C 329.963 291.221,330.533 290.699,330.817 290.169 C 331.100 289.639,331.753 288.930,332.266 288.593 C 332.780 288.257,333.200 287.716,333.200 287.391 C 333.200 287.066,333.391 286.800,333.624 286.800 C 333.857 286.800,333.949 286.640,333.828 286.445 C 333.707 286.250,333.917 286.115,334.295 286.145 C 334.672 286.175,335.001 286.020,335.025 285.800 C 335.049 285.580,335.197 285.113,335.354 284.762 C 335.510 284.411,335.551 283.646,335.446 283.062 C 335.305 282.285,335.420 282.000,335.876 282.000 C 336.354 282.000,336.445 282.277,336.263 283.188 C 336.037 284.316,336.060 284.341,336.729 283.688 C 337.116 283.309,337.301 282.943,337.139 282.874 C 336.589 282.639,338.326 279.520,338.974 279.579 C 339.098 279.591,339.188 279.496,339.174 279.370 C 339.159 279.243,339.516 278.820,339.966 278.429 C 340.417 278.038,340.654 277.585,340.493 277.421 C 340.332 277.258,340.556 277.186,340.991 277.262 C 341.483 277.348,341.788 277.174,341.799 276.800 C 341.831 275.714,342.441 274.415,342.874 274.508 C 343.108 274.559,343.396 274.336,343.512 274.013 C 343.681 273.546,343.507 273.569,342.662 274.122 C 341.780 274.701,341.600 274.719,341.600 274.233 C 341.600 273.647,342.246 273.065,343.000 272.971 C 343.220 272.944,343.612 272.894,343.872 272.861 C 344.132 272.827,344.402 272.395,344.472 271.900 C 344.558 271.299,344.833 271.039,345.300 271.118 C 345.926 271.223,346.191 270.786,346.044 269.889 C 346.016 269.718,346.263 269.474,346.594 269.347 C 346.925 269.220,347.088 268.943,346.958 268.731 C 346.827 268.520,347.053 268.404,347.460 268.473 C 348.007 268.567,348.188 268.367,348.153 267.709 C 348.126 267.194,348.279 266.925,348.516 267.072 C 348.772 267.230,348.838 266.990,348.693 266.433 C 348.473 265.592,349.524 264.000,350.300 264.000 C 350.465 264.000,350.616 263.865,350.635 263.700 C 350.736 262.819,351.331 262.075,351.793 262.253 C 352.082 262.364,352.455 262.234,352.621 261.965 C 352.827 261.633,352.744 261.570,352.362 261.768 C 352.053 261.928,352.133 261.788,352.540 261.456 C 352.947 261.125,353.191 260.706,353.082 260.527 C 352.883 260.199,354.055 258.883,354.324 259.133 C 354.402 259.207,354.559 259.175,354.671 259.062 C 354.783 258.950,354.333 258.943,353.670 259.048 C 352.613 259.214,352.491 259.137,352.679 258.419 C 352.868 257.698,353.519 257.397,354.236 257.700 C 354.551 257.833,355.797 255.501,355.661 255.032 C 355.603 254.830,355.807 254.873,356.114 255.129 C 356.797 255.696,357.232 255.348,356.904 254.495 C 356.756 254.107,356.828 253.970,357.094 254.134 C 357.385 254.315,357.455 253.888,357.311 252.810 C 357.116 251.360,357.194 251.183,358.187 250.805 C 358.787 250.577,359.374 250.022,359.491 249.573 C 359.609 249.123,359.930 248.841,360.204 248.946 C 360.872 249.203,361.590 248.439,361.326 247.751 C 361.210 247.448,361.297 247.200,361.520 247.200 C 361.743 247.200,361.830 246.837,361.714 246.394 C 361.573 245.852,361.870 245.229,362.621 244.494 C 363.235 243.892,363.589 243.653,363.407 243.962 C 363.182 244.344,363.226 244.431,363.545 244.234 C 363.802 244.075,363.905 243.769,363.772 243.555 C 363.640 243.340,363.730 242.925,363.974 242.631 C 364.288 242.253,364.296 241.779,364.001 241.003 C 363.652 240.085,363.683 239.946,364.193 240.142 C 364.527 240.270,364.800 240.201,364.800 239.987 C 364.800 239.774,364.935 239.621,365.100 239.647 C 366.093 239.804,366.475 239.531,366.284 238.800 C 366.090 238.060,366.435 237.798,367.368 237.975 C 367.570 238.014,367.503 237.765,367.219 237.423 C 366.789 236.904,366.807 236.800,367.327 236.800 C 367.671 236.800,368.083 236.589,368.242 236.332 C 368.438 236.015,368.311 235.949,367.845 236.127 C 367.437 236.284,367.258 236.230,367.403 235.995 C 367.537 235.778,367.884 235.600,368.174 235.600 C 368.463 235.600,368.808 235.059,368.941 234.397 C 369.075 233.724,369.406 233.239,369.691 233.297 C 369.989 233.357,370.148 233.094,370.073 232.660 C 369.995 232.200,370.114 232.023,370.389 232.193 C 370.690 232.379,370.752 232.147,370.582 231.471 C 370.274 230.242,371.007 228.751,371.775 229.046 C 372.508 229.327,373.288 227.860,373.142 226.475 C 373.018 225.290,373.471 224.273,373.982 224.589 C 374.470 224.891,375.322 223.695,375.076 223.054 C 374.959 222.748,375.044 222.316,375.266 222.094 C 375.538 221.822,375.527 221.602,375.235 221.422 C 374.589 221.023,374.708 220.000,375.400 220.000 C 375.730 220.000,376.000 220.349,376.000 220.776 C 376.000 221.203,376.178 221.663,376.395 221.797 C 376.624 221.939,376.688 221.774,376.547 221.406 C 376.413 221.056,376.569 220.462,376.895 220.085 C 377.737 219.111,378.028 217.600,377.547 216.701 C 377.030 215.735,377.519 215.154,378.050 216.103 C 378.264 216.486,378.735 216.800,379.096 216.800 C 379.654 216.800,379.636 216.705,378.976 216.170 C 378.549 215.824,378.399 215.638,378.642 215.758 C 379.282 216.073,379.933 214.376,379.786 212.777 C 379.717 212.020,379.752 211.626,379.864 211.902 C 379.976 212.179,380.252 212.291,380.477 212.152 C 380.741 211.989,380.779 212.236,380.585 212.847 C 380.318 213.687,380.358 213.733,380.934 213.255 C 381.415 212.856,381.481 212.526,381.191 211.982 C 380.919 211.476,380.941 211.160,381.261 210.962 C 381.567 210.773,381.614 210.853,381.400 211.200 C 381.186 211.546,381.233 211.627,381.538 211.438 C 381.792 211.281,382.000 210.728,382.000 210.209 C 382.000 208.852,382.445 207.826,382.791 208.385 C 382.989 208.705,383.215 208.664,383.563 208.245 C 383.983 207.738,383.875 207.674,382.828 207.807 C 381.913 207.922,381.600 207.802,381.600 207.334 C 381.600 206.891,381.876 206.760,382.544 206.887 C 383.594 207.088,384.400 205.576,384.400 203.405 C 384.400 202.779,384.518 202.385,384.663 202.530 C 385.025 202.892,386.044 201.995,385.772 201.555 C 385.651 201.360,385.743 201.200,385.976 201.200 C 386.209 201.200,386.400 200.629,386.400 199.931 C 386.400 199.234,386.680 198.354,387.021 197.976 C 388.386 196.469,389.533 191.900,388.366 192.621 C 387.901 192.909,387.900 191.977,388.366 191.242 C 388.560 190.935,388.985 190.786,389.311 190.910 C 390.251 191.271,390.800 190.381,390.800 188.496 C 390.800 187.537,390.956 186.849,391.147 186.967 C 391.337 187.085,391.832 186.799,392.247 186.332 C 392.992 185.492,392.991 185.488,392.128 185.941 C 391.428 186.308,391.129 186.272,390.614 185.757 C 389.755 184.898,390.561 183.704,391.484 184.469 C 392.223 185.083,392.889 184.208,392.668 182.914 C 392.584 182.427,392.709 181.964,392.946 181.885 C 393.240 181.787,393.205 181.227,392.833 180.101 C 392.118 177.933,392.464 177.029,393.874 177.383 C 394.814 177.619,394.878 177.575,394.413 177.016 C 393.961 176.472,393.986 176.420,394.588 176.651 C 395.236 176.899,395.279 176.584,395.145 172.562 L 395.000 168.203 396.000 168.200 C 396.890 168.197,397.006 168.021,397.053 166.598 C 397.083 165.719,397.205 164.730,397.325 164.400 C 397.670 163.449,397.901 159.114,397.578 159.635 C 397.124 160.370,396.700 158.568,397.002 157.191 C 397.146 156.536,397.429 155.978,397.632 155.950 C 397.834 155.923,398.225 155.878,398.500 155.850 C 399.107 155.789,399.157 154.450,399.296 134.366 C 399.375 122.921,399.286 119.333,398.922 119.333 C 398.397 119.333,398.405 120.057,398.934 120.444 C 399.442 120.817,398.199 121.170,397.626 120.816 C 397.311 120.622,397.147 119.705,397.184 118.353 C 397.364 111.859,397.180 109.544,396.493 109.650 C 394.911 109.893,394.819 109.681,395.073 106.388 C 395.293 103.528,395.237 103.115,394.561 102.621 C 394.143 102.315,393.934 101.932,394.097 101.770 C 394.430 101.436,393.650 100.322,393.255 100.566 C 393.115 100.653,392.972 100.246,392.938 99.662 C 392.810 97.481,392.591 96.401,392.276 96.400 C 392.098 96.400,392.064 96.220,392.200 96.000 C 392.336 95.780,392.156 95.600,391.800 95.600 C 391.444 95.600,391.264 95.780,391.400 96.000 C 391.536 96.220,391.553 96.400,391.438 96.400 C 391.322 96.400,391.041 96.050,390.812 95.623 C 390.450 94.946,390.513 94.866,391.298 95.007 C 392.124 95.156,392.141 95.125,391.500 94.641 C 391.115 94.350,390.800 93.746,390.800 93.299 C 390.800 92.492,389.954 91.867,388.800 91.822 C 388.470 91.809,388.200 91.529,388.200 91.199 C 388.200 90.870,388.419 90.643,388.686 90.695 C 389.196 90.795,388.982 89.796,388.303 88.918 C 388.099 88.652,388.040 88.260,388.172 88.045 C 388.305 87.831,388.202 87.525,387.945 87.366 C 387.628 87.170,387.580 87.259,387.797 87.638 C 387.973 87.947,387.731 87.803,387.259 87.317 C 386.762 86.806,386.400 85.920,386.400 85.217 C 386.400 84.548,386.209 84.000,385.976 84.000 C 385.743 84.000,385.646 83.849,385.761 83.664 C 385.875 83.479,385.419 82.921,384.748 82.425 C 383.909 81.804,383.589 81.284,383.726 80.761 C 383.836 80.342,383.751 80.000,383.539 80.000 C 383.327 80.000,383.251 79.840,383.372 79.645 C 383.493 79.450,383.346 79.087,383.047 78.839 C 382.623 78.487,382.504 78.544,382.506 79.094 C 382.514 80.765,382.430 80.923,381.808 80.407 C 381.359 80.034,381.318 79.727,381.639 79.127 C 381.872 78.693,381.928 78.037,381.765 77.669 C 381.602 77.301,381.454 76.820,381.435 76.600 C 381.416 76.380,381.220 76.195,381.000 76.190 C 380.275 76.171,379.400 75.411,379.400 74.800 C 379.400 74.470,379.026 74.036,378.569 73.835 C 378.112 73.634,377.525 72.990,377.266 72.403 C 376.948 71.686,376.501 71.347,375.897 71.369 C 375.149 71.395,375.000 71.189,375.000 70.125 C 375.000 69.212,374.628 68.486,373.690 67.568 C 372.970 66.863,372.473 66.193,372.587 66.080 C 372.928 65.739,371.978 64.834,371.471 65.018 C 371.212 65.111,370.730 64.606,370.400 63.894 C 370.041 63.119,369.526 62.621,369.116 62.653 C 368.739 62.682,368.460 62.592,368.495 62.453 C 368.682 61.707,367.868 60.365,367.349 60.564 C 367.015 60.692,366.665 60.492,366.524 60.093 C 366.113 58.933,365.119 58.000,364.295 58.000 C 363.796 58.000,363.591 57.801,363.726 57.449 C 363.999 56.737,363.263 56.001,362.551 56.274 C 362.219 56.402,362.000 56.221,362.000 55.819 C 362.000 55.453,361.840 55.251,361.645 55.372 C 361.450 55.493,361.315 55.278,361.345 54.896 C 361.379 54.462,361.138 54.221,360.704 54.255 C 360.322 54.285,360.107 54.150,360.228 53.955 C 360.349 53.760,360.156 53.600,359.800 53.600 C 359.444 53.600,359.264 53.420,359.400 53.200 C 359.536 52.980,359.367 52.800,359.024 52.800 C 358.681 52.800,358.400 52.508,358.400 52.151 C 358.400 51.638,358.282 51.600,357.836 51.970 C 357.492 52.255,357.179 52.289,357.035 52.057 C 356.905 51.847,356.460 51.764,356.045 51.872 C 355.135 52.110,354.533 51.307,355.155 50.685 C 355.663 50.177,355.746 49.579,355.300 49.643 C 354.472 49.763,353.250 49.027,352.862 48.177 C 352.623 47.652,351.960 47.105,351.390 46.962 C 350.743 46.799,350.430 46.499,350.559 46.163 C 350.672 45.868,350.565 45.502,350.321 45.351 C 350.036 45.175,349.981 45.278,350.168 45.638 C 350.350 45.988,350.260 45.963,349.930 45.572 C 349.601 45.182,348.792 44.954,347.800 44.972 C 346.333 44.998,346.189 44.906,346.070 43.869 C 345.975 43.035,345.634 42.631,344.771 42.330 C 344.127 42.106,343.703 41.756,343.829 41.554 C 343.954 41.351,343.501 40.951,342.822 40.666 C 342.142 40.380,341.710 40.024,341.860 39.873 C 342.010 39.723,341.814 39.600,341.424 39.600 C 340.999 39.600,340.796 39.813,340.918 40.130 C 341.051 40.476,340.830 40.639,340.284 40.599 C 339.245 40.522,338.906 39.688,339.778 39.353 C 340.658 39.015,339.412 38.031,338.082 38.013 C 337.502 38.005,337.208 37.789,337.282 37.426 C 337.347 37.111,337.220 36.825,337.000 36.792 C 336.780 36.759,336.383 36.552,336.118 36.332 C 335.852 36.111,335.446 36.048,335.214 36.191 C 334.499 36.633,333.344 36.034,332.859 34.970 C 332.605 34.412,332.217 34.066,331.998 34.201 C 331.779 34.336,331.600 34.269,331.600 34.051 C 331.600 33.832,331.244 33.541,330.808 33.403 C 330.373 33.264,330.058 32.937,330.108 32.676 C 330.159 32.414,329.975 32.245,329.700 32.300 C 329.425 32.355,329.200 32.265,329.200 32.100 C 329.200 31.935,328.795 31.773,328.300 31.740 C 326.677 31.633,325.846 31.338,325.670 30.809 C 325.557 30.470,325.675 30.399,326.010 30.606 C 326.359 30.822,326.426 30.765,326.218 30.429 C 326.043 30.145,325.524 30.033,324.998 30.165 C 324.394 30.316,324.006 30.191,323.854 29.797 C 323.728 29.469,323.159 29.200,322.589 29.200 C 321.866 29.200,321.644 29.049,321.853 28.700 C 322.078 28.325,322.009 28.306,321.577 28.625 C 320.860 29.152,319.966 29.137,320.100 28.600 C 320.155 28.380,320.411 28.223,320.668 28.250 C 320.926 28.278,321.059 28.098,320.964 27.850 C 320.869 27.603,320.388 27.364,319.896 27.320 C 317.606 27.117,317.002 26.891,317.056 26.258 C 317.104 25.686,316.528 25.476,315.345 25.634 C 315.204 25.653,314.979 25.501,314.845 25.296 C 314.467 24.721,312.480 24.347,312.201 24.799 C 311.894 25.296,310.800 25.331,310.800 24.843 C 310.800 24.647,311.257 24.372,311.816 24.232 C 312.457 24.071,312.726 23.803,312.543 23.508 C 312.323 23.152,312.215 23.155,312.093 23.520 C 312.005 23.784,311.578 24.000,311.143 24.000 C 310.708 24.000,310.448 23.846,310.564 23.658 C 310.829 23.230,309.057 22.400,307.877 22.400 C 307.391 22.400,306.763 22.033,306.483 21.584 C 306.203 21.136,305.800 20.877,305.587 21.008 C 305.374 21.140,305.200 21.057,305.200 20.824 C 305.200 20.591,304.610 20.400,303.889 20.400 C 302.663 20.400,300.963 19.170,301.478 18.655 C 301.595 18.538,301.355 18.435,300.945 18.426 C 298.753 18.377,297.193 17.849,296.610 16.958 C 296.053 16.109,295.684 16.000,293.367 16.000 C 291.653 16.000,290.842 15.856,291.011 15.582 C 291.337 15.055,290.437 13.930,289.937 14.239 C 289.732 14.365,289.302 14.250,288.980 13.983 C 288.591 13.660,287.736 13.585,286.427 13.759 C 284.336 14.036,283.490 13.566,284.692 12.794 C 285.355 12.368,285.353 12.354,284.655 12.574 C 284.116 12.745,283.972 12.649,284.134 12.228 C 284.311 11.767,283.952 11.649,282.402 11.661 C 280.349 11.677,279.443 11.377,279.800 10.800 C 280.062 10.376,279.317 9.886,278.220 9.761 C 275.048 9.400,273.712 8.984,272.885 8.102 C 272.300 7.478,271.729 7.218,271.304 7.382 C 270.213 7.800,266.477 7.178,266.231 6.536 C 266.086 6.159,266.181 6.055,266.505 6.238 C 266.898 6.460,266.898 6.407,266.506 5.985 C 265.961 5.396,265.774 5.355,261.910 4.964 C 260.430 4.814,259.303 4.557,259.405 4.391 C 260.283 2.972,247.897 2.135,246.856 3.544 M113.900 9.482 C 114.395 9.578,115.205 9.578,115.700 9.482 C 116.195 9.387,115.790 9.309,114.800 9.309 C 113.810 9.309,113.405 9.387,113.900 9.482 M241.785 9.624 C 241.504 10.079,240.400 10.127,240.400 9.685 C 240.400 9.512,240.764 9.343,241.209 9.309 C 241.653 9.276,241.913 9.418,241.785 9.624 M236.800 12.387 C 236.800 12.601,236.530 12.671,236.200 12.545 C 235.870 12.418,235.600 12.498,235.600 12.722 C 235.600 13.273,236.917 13.049,237.112 12.465 C 237.197 12.209,237.162 12.000,237.033 12.000 C 236.905 12.000,236.800 12.174,236.800 12.387 M128.300 13.882 C 128.795 13.978,129.605 13.978,130.100 13.882 C 130.595 13.787,130.190 13.709,129.200 13.709 C 128.210 13.709,127.805 13.787,128.300 13.882 M141.300 18.276 C 141.685 18.376,142.315 18.376,142.700 18.276 C 143.085 18.175,142.770 18.093,142.000 18.093 C 141.230 18.093,140.915 18.175,141.300 18.276 M152.700 22.682 C 153.195 22.778,154.005 22.778,154.500 22.682 C 154.995 22.587,154.590 22.509,153.600 22.509 C 152.610 22.509,152.205 22.587,152.700 22.682 M325.250 31.710 C 324.883 32.077,323.600 31.671,323.600 31.187 C 323.600 30.680,324.964 30.512,325.283 30.979 C 325.439 31.207,325.424 31.536,325.250 31.710 M329.531 33.803 C 329.412 33.922,329.004 33.900,328.624 33.754 C 328.081 33.545,328.046 33.418,328.463 33.161 C 328.995 32.832,329.936 33.398,329.531 33.803 M395.568 108.528 C 395.774 108.734,396.232 108.702,396.661 108.452 C 397.310 108.073,397.266 108.030,396.307 108.097 C 395.671 108.141,395.362 108.322,395.568 108.528 M4.914 155.800 C 4.917 156.900,4.995 157.303,5.087 156.695 C 5.179 156.086,5.177 155.186,5.082 154.695 C 4.987 154.203,4.911 154.700,4.914 155.800 M398.978 156.435 C 398.831 156.674,398.910 157.070,399.155 157.315 C 399.482 157.642,399.600 157.526,399.600 156.880 C 399.600 155.914,399.392 155.765,398.978 156.435 M4.920 240.400 C 4.920 241.610,4.995 242.105,5.087 241.500 C 5.178 240.895,5.178 239.905,5.087 239.300 C 4.995 238.695,4.920 239.190,4.920 240.400 M306.652 319.008 C 306.527 319.333,306.599 319.600,306.813 319.600 C 307.026 319.600,307.200 319.420,307.200 319.200 C 307.200 318.980,307.391 318.800,307.624 318.800 C 307.857 318.800,307.936 318.980,307.800 319.200 C 307.444 319.775,307.825 319.693,308.329 319.085 C 308.655 318.693,308.534 318.552,307.818 318.493 C 307.300 318.450,306.778 318.681,306.652 319.008 M283.530 344.789 C 283.655 345.164,283.494 345.245,282.998 345.055 C 282.374 344.815,282.352 344.869,282.822 345.491 C 283.323 346.156,283.311 346.159,282.631 345.538 C 282.232 345.174,282.033 344.670,282.189 344.417 C 282.538 343.853,283.287 344.060,283.530 344.789 M249.773 376.317 C 250.536 377.387,250.536 377.392,249.773 376.761 C 249.348 376.409,248.674 376.006,248.275 375.864 C 247.876 375.722,247.656 375.432,247.787 375.220 C 248.133 374.661,248.889 375.078,249.773 376.317 " stroke="none" fill="#040484" fill-rule="evenodd"></path><path id="path1" d="M254.700 3.082 C 255.195 3.178,256.005 3.178,256.500 3.082 C 256.995 2.987,256.590 2.909,255.600 2.909 C 254.610 2.909,254.205 2.987,254.700 3.082 M269.300 7.476 C 269.685 7.576,270.315 7.576,270.700 7.476 C 271.085 7.375,270.770 7.293,270.000 7.293 C 269.230 7.293,268.915 7.375,269.300 7.476 M240.222 8.364 C 239.883 8.913,240.413 10.000,241.019 10.000 C 241.313 10.000,241.671 9.808,241.817 9.573 C 241.975 9.317,241.784 9.197,241.340 9.273 C 240.839 9.359,240.618 9.174,240.656 8.700 C 240.717 7.927,240.565 7.809,240.222 8.364 M110.878 9.867 C 110.372 9.974,109.800 10.475,109.608 10.980 C 109.416 11.485,108.807 12.012,108.256 12.150 C 107.704 12.289,107.145 12.742,107.013 13.158 C 106.881 13.573,106.406 14.010,105.957 14.127 C 105.508 14.245,105.054 14.671,104.948 15.076 C 104.843 15.480,104.226 16.115,103.578 16.487 C 102.930 16.859,102.400 17.441,102.400 17.781 C 102.400 18.122,102.122 18.400,101.781 18.400 C 101.441 18.400,100.859 18.930,100.487 19.578 C 100.115 20.226,99.480 20.843,99.076 20.948 C 98.671 21.054,98.243 21.514,98.124 21.970 C 98.002 22.434,97.579 22.800,97.164 22.800 C 96.743 22.800,96.152 23.320,95.800 24.000 C 95.459 24.660,94.943 25.200,94.654 25.200 C 94.365 25.200,93.940 25.615,93.709 26.121 C 93.456 26.675,92.636 27.258,91.652 27.583 C 90.741 27.884,89.911 28.450,89.781 28.861 C 89.652 29.266,89.115 29.706,88.588 29.839 C 88.060 29.971,87.529 30.394,87.407 30.779 C 87.285 31.164,86.754 31.675,86.227 31.915 C 85.700 32.155,85.158 32.703,85.021 33.132 C 84.885 33.562,84.422 34.006,83.992 34.118 C 83.562 34.231,83.041 34.765,82.836 35.307 C 82.630 35.848,82.074 36.392,81.601 36.516 C 81.128 36.639,80.647 37.099,80.533 37.536 C 80.418 37.974,79.903 38.438,79.389 38.567 C 78.874 38.696,78.344 39.145,78.211 39.565 C 78.078 39.985,77.526 40.619,76.984 40.973 C 76.443 41.328,76.000 41.872,76.000 42.181 C 76.000 42.491,75.600 42.802,75.110 42.872 C 74.621 42.942,74.013 43.418,73.759 43.928 C 73.506 44.438,72.916 45.123,72.449 45.451 C 71.982 45.778,71.600 46.262,71.600 46.528 C 71.600 46.793,71.195 47.188,70.700 47.405 C 70.205 47.622,69.627 48.194,69.416 48.675 C 69.204 49.157,68.712 49.634,68.321 49.737 C 67.930 49.839,67.432 50.390,67.215 50.961 C 66.998 51.533,66.548 52.000,66.215 52.000 C 65.883 52.000,65.348 52.630,65.026 53.400 C 64.704 54.170,64.232 54.800,63.978 54.800 C 63.723 54.800,63.622 55.079,63.753 55.421 C 63.884 55.762,63.834 55.944,63.642 55.826 C 63.450 55.707,63.080 56.125,62.819 56.753 C 62.559 57.382,61.908 58.096,61.373 58.340 C 60.809 58.596,60.400 59.123,60.400 59.591 C 60.400 60.136,60.136 60.400,59.591 60.400 C 59.118 60.400,58.595 60.813,58.330 61.394 C 58.081 61.941,57.454 62.665,56.938 63.004 C 56.422 63.342,56.000 63.863,56.000 64.163 C 56.000 64.462,55.642 64.800,55.205 64.915 C 54.767 65.029,54.225 65.607,54.000 66.200 C 53.775 66.793,53.249 67.367,52.832 67.476 C 52.068 67.675,51.616 68.694,51.605 70.236 C 51.602 70.728,51.203 71.253,50.635 71.511 C 50.104 71.753,49.558 72.303,49.421 72.732 C 49.285 73.162,48.822 73.606,48.392 73.718 C 47.962 73.831,47.432 74.390,47.215 74.961 C 46.998 75.533,46.567 76.000,46.258 76.000 C 45.950 76.000,45.473 76.540,45.200 77.200 C 44.927 77.860,44.558 78.400,44.380 78.400 C 43.719 78.400,42.800 79.689,42.800 80.615 C 42.800 81.141,42.260 82.125,41.600 82.800 C 40.940 83.475,40.400 84.159,40.400 84.319 C 40.400 84.479,40.001 84.788,39.514 85.005 C 38.950 85.256,38.477 85.987,38.214 87.012 C 37.986 87.899,37.395 89.024,36.900 89.512 C 36.405 90.001,36.000 90.568,36.000 90.773 C 36.000 90.978,35.625 91.265,35.166 91.411 C 34.707 91.556,34.150 92.198,33.927 92.838 C 33.704 93.477,33.265 94.000,32.951 94.000 C 32.311 94.000,31.600 95.569,31.600 96.979 C 31.600 97.561,31.310 97.982,30.824 98.110 C 30.397 98.221,29.760 98.917,29.410 99.656 C 27.990 102.649,26.843 104.494,26.067 105.038 C 25.559 105.394,25.149 106.264,24.990 107.326 C 24.807 108.550,24.486 109.148,23.867 109.420 C 23.203 109.711,22.971 110.209,22.875 111.544 C 22.780 112.860,22.563 113.337,21.988 113.487 C 21.569 113.597,21.117 114.033,20.982 114.456 C 20.848 114.879,20.299 115.699,19.763 116.277 C 19.227 116.856,18.675 118.044,18.535 118.917 C 18.369 119.952,18.037 120.570,17.580 120.689 C 16.882 120.872,16.542 121.894,16.140 125.020 C 15.992 126.176,15.685 126.748,15.066 127.020 C 14.392 127.315,14.174 127.803,14.082 129.213 C 13.990 130.623,13.770 131.112,13.095 131.413 C 12.096 131.858,11.696 133.023,11.640 135.654 C 11.607 137.166,11.416 137.629,10.600 138.163 C 9.775 138.704,9.600 139.138,9.600 140.647 C 9.600 142.108,9.447 142.515,8.838 142.674 C 7.906 142.918,7.200 145.441,7.200 148.531 C 7.200 150.412,7.064 150.797,6.200 151.363 C 5.293 151.957,5.200 152.276,5.200 154.782 C 5.200 157.180,5.096 157.579,4.412 157.796 C 3.305 158.148,2.805 160.324,2.802 164.805 C 2.800 168.335,2.736 168.639,1.922 169.005 C 0.399 169.690,0.311 171.177,0.267 197.000 C 0.220 224.421,0.356 227.227,1.794 228.560 C 2.601 229.308,2.731 229.866,2.857 233.144 C 2.992 236.657,3.065 236.928,4.100 237.753 C 5.147 238.588,5.200 238.795,5.200 242.086 C 5.200 245.233,5.284 245.608,6.136 246.278 C 6.885 246.868,7.119 247.531,7.307 249.603 C 7.495 251.678,7.735 252.357,8.516 253.029 C 9.281 253.687,9.531 254.368,9.683 256.200 C 9.829 257.955,10.090 258.706,10.738 259.231 C 11.251 259.645,11.602 260.389,11.605 261.064 C 11.615 262.965,12.065 264.045,12.996 264.399 C 13.743 264.682,13.919 265.133,14.110 267.243 C 14.280 269.118,14.543 269.907,15.153 270.375 C 15.637 270.746,16.079 271.703,16.240 272.727 C 16.425 273.909,16.809 274.650,17.455 275.073 C 18.141 275.522,18.400 276.064,18.400 277.050 C 18.400 278.002,18.746 278.770,19.558 279.619 C 20.196 280.286,20.832 281.444,20.972 282.193 C 21.133 283.052,21.518 283.647,22.014 283.804 C 22.446 283.942,22.800 284.359,22.800 284.732 C 22.800 285.105,23.228 285.732,23.752 286.125 C 24.344 286.570,24.798 287.426,24.952 288.391 C 25.102 289.329,25.571 290.234,26.139 290.680 C 26.665 291.094,27.199 292.070,27.356 292.904 C 27.509 293.722,27.962 294.566,28.362 294.780 C 28.763 294.994,29.310 295.699,29.578 296.347 C 29.846 296.994,30.383 297.607,30.772 297.709 C 31.174 297.814,31.586 298.428,31.727 299.134 C 31.863 299.817,32.348 300.748,32.803 301.203 C 33.259 301.659,33.807 302.492,34.021 303.055 C 34.235 303.617,34.767 304.171,35.205 304.285 C 35.642 304.400,36.000 304.660,36.000 304.865 C 36.000 305.069,36.456 305.692,37.013 306.249 C 37.570 306.806,38.160 307.923,38.326 308.731 C 38.511 309.636,38.943 310.341,39.451 310.568 C 39.905 310.771,40.468 311.446,40.703 312.068 C 40.938 312.691,41.404 313.200,41.738 313.200 C 42.073 313.200,42.464 313.571,42.608 314.024 C 42.752 314.478,43.292 315.041,43.808 315.277 C 44.470 315.578,44.825 316.166,45.011 317.268 C 45.179 318.260,45.612 319.051,46.196 319.434 C 46.702 319.766,47.212 320.402,47.329 320.848 C 47.445 321.294,47.908 321.755,48.357 321.873 C 48.806 321.990,49.285 322.438,49.421 322.868 C 49.558 323.297,50.090 323.840,50.604 324.075 C 51.118 324.309,51.640 324.906,51.765 325.402 C 51.889 325.898,52.341 326.396,52.769 326.508 C 53.284 326.642,53.639 327.203,53.819 328.163 C 53.969 328.961,54.486 329.926,54.967 330.307 C 55.449 330.688,55.969 331.332,56.123 331.738 C 56.278 332.144,56.748 332.566,57.169 332.676 C 57.590 332.786,58.151 333.399,58.416 334.038 C 58.696 334.715,59.199 335.200,59.621 335.200 C 60.067 335.200,60.393 335.545,60.472 336.100 C 60.542 336.595,60.993 337.173,61.474 337.384 C 61.955 337.595,62.536 338.180,62.765 338.684 C 62.995 339.188,63.461 339.600,63.801 339.600 C 64.141 339.600,64.592 340.053,64.803 340.607 C 65.013 341.161,65.623 341.781,66.159 341.984 C 66.694 342.188,67.249 342.724,67.393 343.177 C 67.536 343.630,67.916 344.000,68.237 344.000 C 68.557 344.000,68.992 344.453,69.203 345.007 C 69.413 345.561,70.023 346.181,70.559 346.384 C 71.094 346.588,71.649 347.124,71.793 347.577 C 71.936 348.030,72.316 348.400,72.637 348.400 C 72.957 348.400,73.392 348.853,73.603 349.407 C 73.813 349.961,74.439 350.587,74.993 350.797 C 75.547 351.008,76.000 351.459,76.000 351.799 C 76.000 352.139,76.435 352.615,76.966 352.857 C 77.497 353.099,78.020 353.633,78.127 354.044 C 78.235 354.454,78.790 354.968,79.361 355.185 C 79.933 355.402,80.400 355.859,80.400 356.199 C 80.400 356.539,80.830 357.013,81.356 357.253 C 81.882 357.492,82.508 358.118,82.747 358.644 C 82.987 359.170,83.461 359.600,83.801 359.600 C 84.141 359.600,84.591 360.050,84.800 360.600 C 85.009 361.150,85.350 361.600,85.557 361.600 C 86.102 361.600,89.200 364.653,89.200 365.189 C 89.200 365.438,89.722 365.824,90.360 366.046 C 90.998 366.268,91.615 366.812,91.730 367.255 C 91.846 367.697,92.308 368.155,92.757 368.273 C 93.206 368.390,93.681 368.827,93.813 369.242 C 93.945 369.658,94.469 370.102,94.976 370.230 C 95.484 370.357,96.094 370.889,96.332 371.411 C 96.614 372.029,97.325 372.510,98.375 372.793 C 99.261 373.032,100.169 373.569,100.393 373.986 C 100.616 374.404,101.159 374.860,101.600 375.000 C 102.040 375.140,102.400 375.436,102.400 375.659 C 102.400 376.145,105.795 379.600,106.274 379.600 C 106.459 379.600,106.788 380.005,107.005 380.500 C 107.222 380.995,107.805 381.458,108.300 381.528 C 108.795 381.598,109.200 381.885,109.200 382.166 C 109.200 384.100,115.356 384.811,116.165 382.970 C 116.365 382.514,117.040 381.847,117.665 381.489 C 118.289 381.130,118.800 380.580,118.800 380.265 C 118.800 379.951,119.173 379.596,119.630 379.476 C 120.086 379.357,120.546 378.929,120.652 378.524 C 120.757 378.120,121.374 377.485,122.022 377.113 C 122.670 376.741,123.200 376.159,123.200 375.819 C 123.200 375.478,123.361 375.200,123.558 375.200 C 124.099 375.200,127.600 371.787,127.600 371.260 C 127.600 371.007,127.777 370.800,127.993 370.800 C 128.499 370.800,131.999 367.455,132.003 366.969 C 132.004 366.766,132.544 366.293,133.203 365.919 C 133.861 365.544,134.400 364.980,134.400 364.665 C 134.400 364.351,134.773 363.996,135.230 363.876 C 135.686 363.757,136.151 363.308,136.264 362.878 C 136.376 362.449,136.887 361.907,137.399 361.673 C 137.911 361.440,138.442 360.897,138.579 360.468 C 138.715 360.038,139.194 359.590,139.643 359.473 C 140.092 359.355,140.551 358.908,140.664 358.478 C 140.776 358.049,141.287 357.507,141.799 357.273 C 142.311 357.040,142.842 356.497,142.979 356.068 C 143.115 355.638,143.594 355.190,144.043 355.073 C 144.492 354.955,144.951 354.508,145.064 354.078 C 145.176 353.649,145.687 353.107,146.199 352.873 C 146.711 352.640,147.242 352.097,147.379 351.668 C 147.515 351.238,147.980 350.794,148.411 350.681 C 148.843 350.568,149.320 350.144,149.472 349.738 C 149.624 349.332,150.705 348.097,151.874 346.993 C 153.043 345.890,154.000 344.777,154.000 344.520 C 154.000 344.264,154.341 343.946,154.757 343.814 C 155.173 343.682,155.735 343.039,156.006 342.387 C 156.276 341.734,156.700 341.199,156.949 341.199 C 157.197 341.198,157.725 340.406,158.123 339.439 C 158.537 338.432,159.175 337.595,159.618 337.479 C 160.043 337.368,160.568 336.810,160.785 336.239 C 161.002 335.667,161.443 335.200,161.763 335.200 C 162.084 335.200,162.461 334.838,162.601 334.396 C 162.742 333.953,163.384 333.319,164.028 332.985 C 164.673 332.652,165.200 332.097,165.200 331.752 C 165.200 331.407,165.554 331.033,165.987 330.919 C 166.419 330.806,166.880 330.378,167.010 329.967 C 167.141 329.557,167.777 328.844,168.424 328.383 C 169.071 327.922,169.600 327.309,169.600 327.019 C 169.600 326.730,169.960 326.399,170.399 326.284 C 170.838 326.169,171.341 325.689,171.516 325.216 C 171.691 324.743,172.276 324.137,172.817 323.868 C 173.358 323.600,173.858 322.979,173.928 322.489 C 173.998 321.999,174.397 321.416,174.814 321.193 C 175.231 320.969,175.782 320.085,176.039 319.226 C 176.327 318.266,176.806 317.587,177.283 317.462 C 177.710 317.351,178.151 316.908,178.264 316.478 C 178.376 316.049,178.887 315.507,179.399 315.273 C 179.911 315.040,180.444 314.490,180.583 314.052 C 180.722 313.614,181.323 313.148,181.918 313.016 C 182.866 312.806,183.010 312.568,183.084 311.088 C 183.303 306.686,183.540 306.100,186.556 302.481 C 189.517 298.930,193.819 293.403,197.145 288.876 C 198.165 287.488,199.821 285.328,200.824 284.076 C 201.827 282.824,203.433 280.630,204.394 279.200 C 205.354 277.770,206.280 276.505,206.451 276.388 C 206.756 276.180,207.415 275.258,211.014 270.000 C 213.329 266.618,220.371 256.007,221.400 254.350 C 221.840 253.641,222.740 252.199,223.400 251.145 C 227.893 243.970,234.363 232.322,238.368 224.200 C 242.423 215.976,245.200 210.097,245.200 209.737 C 245.200 209.580,245.544 208.721,245.965 207.826 C 247.109 205.393,248.769 201.280,249.606 198.800 C 250.015 197.590,251.007 194.800,251.809 192.600 C 252.612 190.400,253.585 187.340,253.971 185.800 C 254.357 184.260,254.962 182.100,255.315 181.000 C 256.294 177.954,257.925 170.569,258.379 167.127 C 258.602 165.438,258.954 163.278,259.162 162.327 C 260.483 156.288,260.773 135.563,259.602 130.830 C 259.362 129.857,258.837 127.157,258.436 124.830 C 257.634 120.170,256.393 115.483,254.986 111.800 C 254.482 110.480,253.951 108.860,253.805 108.200 C 253.538 106.986,247.601 94.644,246.398 92.800 C 235.899 76.716,223.566 63.526,211.044 54.988 C 209.760 54.113,208.540 53.221,206.043 51.332 C 204.139 49.890,202.400 47.535,202.400 46.396 C 202.400 45.974,201.995 45.414,201.500 45.153 C 201.005 44.892,200.204 44.256,199.719 43.739 C 199.235 43.223,198.387 42.800,197.835 42.800 C 197.272 42.800,196.414 42.349,195.877 41.770 C 195.269 41.114,194.332 40.661,193.295 40.522 C 192.157 40.369,191.609 40.079,191.473 39.557 C 191.260 38.742,189.699 38.000,188.201 38.000 C 187.611 38.000,187.160 37.704,187.004 37.214 C 186.843 36.704,186.243 36.332,185.297 36.154 C 184.495 36.004,183.470 35.530,183.019 35.102 C 182.046 34.177,180.682 33.600,179.469 33.600 C 178.941 33.600,178.432 33.241,178.195 32.700 C 177.883 31.989,177.420 31.775,175.987 31.682 C 174.566 31.589,174.090 31.373,173.787 30.682 C 173.518 30.068,172.853 29.685,171.600 29.423 C 170.525 29.198,169.507 28.675,169.071 28.123 C 168.502 27.403,167.945 27.200,166.535 27.200 C 165.265 27.200,164.531 26.976,164.064 26.445 C 163.310 25.588,161.188 24.800,159.635 24.800 C 158.935 24.800,158.459 24.503,158.195 23.900 C 157.846 23.105,157.465 22.986,154.922 22.883 C 152.444 22.782,152.007 22.654,151.787 21.960 C 151.505 21.072,150.103 20.400,148.532 20.400 C 147.924 20.400,147.199 19.998,146.729 19.400 C 146.038 18.522,145.634 18.400,143.418 18.400 C 141.235 18.400,140.865 18.292,140.685 17.605 C 140.414 16.568,138.852 16.000,136.269 16.000 C 134.496 16.000,134.131 15.867,133.795 15.100 C 133.447 14.308,133.063 14.186,130.588 14.084 C 128.144 13.984,127.725 13.854,127.388 13.097 C 126.922 12.052,125.769 11.693,122.700 11.640 C 120.881 11.608,120.212 11.412,119.501 10.700 C 118.597 9.796,113.536 9.307,110.878 9.867 M239.200 10.029 C 239.200 10.264,238.930 10.727,238.600 11.057 C 237.763 11.894,237.852 12.364,238.800 12.116 C 239.240 12.001,239.600 11.672,239.600 11.386 C 239.600 11.100,239.709 10.581,239.843 10.233 C 239.976 9.885,239.886 9.600,239.643 9.600 C 239.399 9.600,239.200 9.793,239.200 10.029 M237.088 12.385 C 236.946 12.928,236.623 13.120,236.041 13.008 C 235.077 12.822,234.992 13.011,235.697 13.766 C 236.249 14.357,237.600 13.201,237.600 12.139 C 237.600 11.349,237.324 11.482,237.088 12.385 M284.000 12.387 C 284.000 12.601,284.315 12.677,284.700 12.557 C 285.354 12.354,285.354 12.369,284.692 12.794 C 283.854 13.332,284.135 14.000,285.200 14.000 C 286.200 14.000,286.585 13.305,285.985 12.582 C 285.444 11.930,284.000 11.788,284.000 12.387 M233.073 15.061 C 232.580 15.553,232.787 16.400,233.400 16.400 C 234.067 16.400,234.150 16.055,233.667 15.294 C 233.490 15.016,233.223 14.911,233.073 15.061 M231.192 17.010 C 230.444 17.911,230.878 18.015,231.770 17.148 C 232.193 16.737,232.351 16.400,232.119 16.400 C 231.887 16.400,231.470 16.674,231.192 17.010 M310.302 23.066 C 310.579 23.177,310.703 23.433,310.579 23.634 C 310.455 23.835,310.768 24.021,311.276 24.046 C 311.954 24.080,312.014 24.142,311.500 24.276 C 310.672 24.492,310.558 25.200,311.351 25.200 C 312.260 25.200,312.796 24.270,312.203 23.724 C 311.918 23.462,311.576 23.357,311.443 23.491 C 311.309 23.624,311.200 23.523,311.200 23.267 C 311.200 23.010,310.885 22.814,310.500 22.832 C 310.078 22.851,309.999 22.944,310.302 23.066 M320.176 28.187 C 319.324 28.832,319.328 28.837,320.880 28.977 C 321.817 29.061,321.908 28.976,321.566 28.337 C 321.092 27.451,321.142 27.457,320.176 28.187 M324.300 30.711 C 323.915 30.792,323.600 31.006,323.600 31.187 C 323.600 31.671,324.883 32.077,325.250 31.710 C 325.735 31.225,325.088 30.545,324.300 30.711 M328.463 33.161 C 328.046 33.418,328.081 33.545,328.624 33.754 C 329.448 34.070,329.900 33.740,329.370 33.210 C 329.163 33.003,328.755 32.981,328.463 33.161 M339.934 38.750 C 340.359 39.020,340.332 39.140,339.800 39.345 C 338.910 39.686,339.232 40.521,340.284 40.599 C 340.830 40.639,341.051 40.476,340.918 40.130 C 340.806 39.839,340.936 39.600,341.206 39.600 C 341.592 39.600,341.591 39.471,341.200 39.000 C 340.926 38.670,340.409 38.403,340.051 38.406 C 339.542 38.411,339.516 38.486,339.934 38.750 M346.073 43.900 C 346.181 44.831,346.399 45.010,347.495 45.065 C 348.654 45.123,348.748 45.050,348.381 44.365 C 348.156 43.944,347.698 43.600,347.362 43.600 C 347.027 43.600,346.864 43.420,347.000 43.200 C 347.136 42.980,346.955 42.800,346.597 42.800 C 346.124 42.800,345.981 43.099,346.073 43.900 M355.215 50.582 C 354.583 51.344,355.084 52.124,356.045 51.872 C 356.460 51.764,356.902 51.841,357.027 52.044 C 357.153 52.247,357.411 52.317,357.602 52.199 C 357.920 52.003,356.373 50.000,355.903 50.000 C 355.790 50.000,355.480 50.262,355.215 50.582 M374.800 70.324 C 374.800 70.819,375.078 71.332,375.417 71.462 C 376.460 71.862,376.603 71.225,375.678 70.300 L 374.800 69.422 374.800 70.324 M381.628 79.147 C 381.320 79.723,381.365 80.039,381.808 80.407 C 382.134 80.677,382.414 80.741,382.431 80.549 C 382.447 80.357,382.521 79.886,382.595 79.502 C 382.788 78.492,382.112 78.243,381.628 79.147 M388.952 90.095 C 389.084 90.515,388.979 90.753,388.686 90.695 C 388.419 90.643,388.200 90.870,388.200 91.200 C 388.200 91.530,388.444 91.749,388.742 91.686 C 389.040 91.623,389.535 91.780,389.842 92.035 C 390.756 92.794,390.536 91.443,389.567 90.344 C 388.970 89.669,388.795 89.598,388.952 90.095 M391.396 94.807 C 391.258 95.030,390.959 95.098,390.732 94.958 C 390.481 94.803,390.497 95.035,390.774 95.552 C 391.024 96.018,391.322 96.400,391.438 96.400 C 391.553 96.400,391.536 96.220,391.400 96.000 C 391.264 95.780,391.313 95.600,391.510 95.600 C 391.706 95.600,391.867 95.330,391.867 95.000 C 391.867 94.297,391.742 94.246,391.396 94.807 M393.869 100.768 C 394.127 101.059,394.249 101.527,394.141 101.808 C 394.034 102.089,394.100 102.415,394.290 102.532 C 394.947 102.938,394.742 101.250,394.073 100.746 C 393.518 100.328,393.483 100.332,393.869 100.768 M395.073 107.353 C 394.425 109.044,394.807 109.760,396.255 109.566 C 396.396 109.547,396.663 109.772,396.849 110.066 C 397.081 110.431,397.190 110.244,397.194 109.473 C 397.199 108.543,397.066 108.389,396.434 108.589 C 396.012 108.723,395.549 108.641,395.404 108.406 C 395.259 108.172,395.289 108.006,395.470 108.037 C 396.285 108.179,396.826 107.966,396.596 107.593 C 396.458 107.370,396.193 107.281,396.007 107.396 C 395.821 107.511,395.596 107.388,395.508 107.123 C 395.409 106.826,395.241 106.915,395.073 107.353 M397.058 116.900 C 396.735 118.134,397.201 120.789,397.751 120.847 C 397.998 120.873,398.427 120.865,398.704 120.829 C 399.105 120.777,399.187 124.365,399.104 138.243 C 399.005 154.873,398.964 155.729,398.263 155.832 C 396.891 156.033,396.339 158.486,397.371 159.800 L 398.000 160.600 398.629 159.800 C 399.033 159.285,399.185 158.540,399.055 157.707 C 398.944 156.996,399.021 156.311,399.226 156.184 C 399.869 155.786,399.713 120.818,399.067 120.570 C 398.773 120.458,398.533 120.111,398.533 119.800 C 398.533 119.490,398.683 119.328,398.867 119.441 C 399.050 119.555,399.200 119.356,399.200 119.000 C 399.200 118.644,399.050 118.445,398.867 118.559 C 398.683 118.672,398.533 118.511,398.533 118.200 C 398.533 117.889,398.683 117.728,398.867 117.841 C 399.317 118.120,399.286 117.708,398.786 116.774 C 398.228 115.731,397.347 115.796,397.058 116.900 M394.964 168.580 C 394.756 169.161,395.010 171.144,395.334 171.467 C 395.480 171.614,395.603 171.388,395.606 170.967 C 395.611 170.325,395.676 170.298,396.000 170.800 C 396.349 171.340,396.572 171.090,396.447 170.300 C 396.421 170.135,396.580 170.000,396.800 170.000 C 397.020 170.000,397.200 169.586,397.200 169.080 C 397.200 168.108,395.285 167.680,394.964 168.580 M392.544 177.801 C 392.202 178.692,392.755 180.481,393.315 180.296 C 394.293 179.973,395.075 178.028,394.400 177.596 C 393.525 177.036,392.807 177.115,392.544 177.801 M390.439 184.553 C 390.077 184.990,390.116 185.259,390.614 185.757 C 391.454 186.596,392.803 185.934,392.794 184.686 C 392.789 183.999,392.706 183.929,392.424 184.374 C 392.138 184.826,391.938 184.847,391.484 184.469 C 391.030 184.093,390.806 184.111,390.439 184.553 M388.240 191.440 C 387.864 192.419,387.957 192.874,388.468 192.558 C 388.784 192.363,388.852 192.488,388.677 192.944 C 388.457 193.518,388.541 193.553,389.240 193.179 C 389.727 192.918,389.970 192.498,389.836 192.149 C 389.708 191.817,389.782 191.665,390.005 191.803 C 390.222 191.937,390.400 191.806,390.400 191.511 C 390.400 190.742,388.531 190.681,388.240 191.440 M387.656 197.055 C 387.176 198.127,387.186 198.158,387.818 197.539 C 388.189 197.176,388.420 196.660,388.331 196.394 C 388.242 196.127,387.939 196.425,387.656 197.055 M383.632 206.445 C 383.609 206.912,383.325 207.036,382.600 206.898 C 381.867 206.758,381.600 206.879,381.600 207.353 C 381.600 207.709,381.799 208.000,382.043 208.000 C 382.286 208.000,382.378 208.279,382.247 208.621 C 382.102 208.999,382.175 209.139,382.432 208.980 C 382.664 208.837,382.750 208.447,382.623 208.115 C 382.460 207.690,382.575 207.581,383.011 207.749 C 383.687 208.008,384.203 207.144,383.869 206.313 C 383.731 205.968,383.653 206.011,383.632 206.445 M379.708 212.500 C 379.704 213.105,379.858 213.600,380.050 213.600 C 380.243 213.600,380.400 213.525,380.400 213.433 C 380.400 213.341,380.521 212.951,380.668 212.567 C 380.841 212.116,380.782 211.964,380.502 212.137 C 380.264 212.284,379.989 212.179,379.892 211.902 C 379.795 211.626,379.712 211.895,379.708 212.500 M377.200 215.781 C 377.200 216.700,378.194 217.937,378.636 217.570 C 379.042 217.234,378.988 216.988,378.373 216.373 C 377.623 215.623,377.200 215.409,377.200 215.781 M374.800 220.520 C 374.800 220.806,375.025 221.282,375.300 221.579 C 375.575 221.875,375.605 222.009,375.367 221.876 C 375.128 221.744,374.933 221.888,374.933 222.196 C 374.933 222.613,375.119 222.658,375.657 222.369 C 376.474 221.932,377.382 220.449,377.041 220.108 C 376.918 219.985,376.645 220.315,376.434 220.842 C 376.052 221.796,376.051 221.797,376.025 220.900 C 375.999 219.959,374.800 219.587,374.800 220.520 M367.600 236.728 C 367.270 236.878,366.952 237.233,366.894 237.517 C 366.813 237.915,366.975 237.934,367.594 237.603 C 368.037 237.366,368.400 236.998,368.400 236.786 C 368.400 236.354,368.423 236.355,367.600 236.728 M364.800 240.054 C 364.800 240.231,364.543 240.276,364.229 240.156 C 363.811 239.996,363.717 240.161,363.877 240.775 C 364.181 241.937,364.615 242.108,365.255 241.319 C 365.723 240.741,365.715 240.690,365.200 240.953 C 364.853 241.130,364.895 241.017,365.300 240.686 C 366.158 239.983,366.184 239.733,365.400 239.733 C 365.070 239.733,364.800 239.878,364.800 240.054 M358.300 250.693 C 357.459 251.114,357.200 251.532,357.200 252.471 C 357.200 253.927,358.020 253.495,359.056 251.492 C 359.789 250.075,359.707 249.989,358.300 250.693 M354.832 257.100 C 354.814 257.375,354.665 257.579,354.500 257.553 C 352.902 257.300,351.760 258.939,353.260 259.331 C 354.122 259.557,355.415 257.973,355.069 257.113 C 354.910 256.716,354.856 256.713,354.832 257.100 M349.067 264.917 C 348.663 265.329,348.430 265.763,348.548 265.881 C 348.832 266.166,350.102 264.881,349.932 264.480 C 349.859 264.308,349.470 264.504,349.067 264.917 M341.994 273.366 C 341.090 274.270,341.583 274.829,342.662 274.122 C 343.507 273.569,343.681 273.546,343.512 274.013 C 343.396 274.336,343.115 274.561,342.888 274.513 C 342.661 274.465,342.374 274.690,342.250 275.013 C 341.938 275.828,342.542 275.748,343.338 274.869 C 344.593 273.482,343.311 272.049,341.994 273.366 M335.405 282.700 C 335.478 283.085,335.567 283.670,335.601 284.000 C 335.645 284.421,335.724 284.450,335.866 284.098 C 335.977 283.821,336.221 283.689,336.407 283.804 C 336.593 283.919,336.875 283.802,337.034 283.545 C 337.215 283.252,337.150 283.184,336.862 283.362 C 336.570 283.542,336.400 283.344,336.400 282.824 C 336.400 282.371,336.146 282.000,335.835 282.000 C 335.513 282.000,335.328 282.301,335.405 282.700 M326.757 293.626 C 326.497 293.787,326.386 294.185,326.510 294.511 C 326.635 294.836,326.527 295.326,326.269 295.600 C 325.896 295.996,325.981 296.005,326.678 295.647 C 327.581 295.183,328.128 294.526,328.244 293.767 C 328.319 293.272,327.462 293.191,326.757 293.626 M317.900 304.276 C 317.059 304.496,317.026 304.809,317.739 305.785 C 318.367 306.643,319.283 306.282,318.915 305.322 C 318.766 304.935,318.828 304.770,319.065 304.917 C 319.286 305.053,319.467 304.903,319.467 304.582 C 319.467 303.996,319.184 303.940,317.900 304.276 M317.058 307.392 C 316.926 307.737,316.409 308.183,315.909 308.384 C 315.323 308.619,315.227 308.758,315.638 308.775 C 316.329 308.802,317.865 307.332,317.514 306.980 C 317.395 306.862,317.191 307.048,317.058 307.392 M308.226 317.243 C 308.409 317.538,308.228 317.599,307.684 317.427 C 307.235 317.284,306.752 317.354,306.611 317.582 C 306.142 318.341,306.044 319.580,306.434 319.821 C 306.646 319.952,306.794 319.911,306.763 319.730 C 306.610 318.850,306.864 318.403,307.500 318.432 C 307.918 318.450,307.999 318.544,307.700 318.665 C 307.425 318.776,307.200 319.060,307.200 319.295 C 307.200 319.531,307.560 319.398,308.000 319.000 C 308.846 318.234,309.092 316.800,308.376 316.800 C 308.143 316.800,308.076 316.999,308.226 317.243 M188.806 319.300 C 188.803 319.685,188.999 320.000,189.243 320.000 C 189.486 320.000,189.588 320.255,189.468 320.567 C 189.248 321.142,190.214 321.762,190.782 321.411 C 191.469 320.986,190.992 319.399,190.198 319.471 C 189.766 319.510,189.277 319.330,189.112 319.071 C 188.913 318.759,188.810 318.836,188.806 319.300 M190.994 322.010 C 190.855 322.235,190.956 322.370,191.220 322.310 C 191.484 322.249,191.791 322.450,191.902 322.756 C 192.042 323.142,191.936 323.210,191.552 322.979 C 191.084 322.697,191.083 322.749,191.549 323.323 C 191.851 323.695,192.346 324.000,192.649 324.000 C 192.952 324.000,193.200 324.338,193.200 324.751 C 193.200 325.714,194.450 326.837,194.699 326.098 C 194.792 325.821,195.056 325.711,195.286 325.853 C 195.525 326.001,195.618 325.874,195.502 325.556 C 195.391 325.250,195.067 325.055,194.782 325.123 C 194.359 325.223,194.359 325.131,194.781 324.623 C 195.395 323.883,194.782 323.779,194.056 324.500 C 193.652 324.901,193.607 324.858,193.825 324.284 C 194.012 323.793,193.926 323.604,193.553 323.684 C 193.176 323.764,193.047 323.462,193.133 322.700 C 193.262 321.556,191.605 321.021,190.994 322.010 M282.189 344.417 C 282.033 344.670,282.232 345.174,282.631 345.538 C 283.311 346.159,283.323 346.156,282.822 345.491 C 282.352 344.869,282.374 344.815,282.998 345.055 C 283.494 345.245,283.655 345.164,283.530 344.789 C 283.287 344.060,282.538 343.853,282.189 344.417 M280.000 347.200 C 279.765 347.640,279.690 348.000,279.835 348.000 C 279.980 348.000,279.897 348.242,279.652 348.537 C 279.407 348.832,279.333 349.199,279.486 349.353 C 279.639 349.506,279.368 349.736,278.883 349.863 C 278.042 350.082,277.625 350.800,278.338 350.800 C 278.818 350.800,280.000 349.427,280.000 348.869 C 280.000 348.611,280.135 348.400,280.300 348.400 C 280.465 348.400,280.600 347.950,280.600 347.400 C 280.600 346.192,280.549 346.175,280.000 347.200 M222.497 354.636 C 222.916 355.075,223.318 355.213,223.504 354.983 C 223.674 354.772,223.742 354.639,223.654 354.686 C 223.566 354.733,223.113 354.577,222.647 354.339 C 221.837 353.925,221.830 353.938,222.497 354.636 M226.102 357.615 C 226.372 358.047,226.723 358.400,226.884 358.400 C 227.367 358.400,226.780 357.278,226.175 357.046 C 225.711 356.868,225.698 356.968,226.102 357.615 M227.600 358.367 C 227.600 358.568,227.825 358.824,228.100 358.935 C 228.481 359.089,228.475 359.144,228.071 359.168 C 227.670 359.192,227.693 359.350,228.168 359.826 C 228.512 360.170,229.003 360.322,229.259 360.164 C 229.548 359.985,229.616 360.051,229.438 360.338 C 229.281 360.592,229.354 360.800,229.600 360.800 C 229.846 360.800,229.919 361.008,229.762 361.262 C 229.589 361.542,229.652 361.615,229.921 361.449 C 230.179 361.290,230.624 361.673,230.979 362.359 C 231.316 363.010,231.944 363.655,232.375 363.792 C 232.806 363.929,233.265 364.375,233.395 364.783 C 233.660 365.621,234.690 365.625,235.206 364.791 C 235.702 363.987,235.310 363.600,234.000 363.600 C 233.366 363.600,232.719 363.392,232.562 363.138 C 232.378 362.841,232.453 362.785,232.772 362.983 C 233.123 363.200,233.228 363.014,233.134 362.344 C 233.028 361.597,232.750 361.396,231.800 361.382 C 230.796 361.366,230.620 361.219,230.725 360.482 C 230.825 359.775,230.652 359.600,229.852 359.600 C 229.205 359.600,228.765 359.318,228.600 358.800 C 228.346 357.999,227.600 357.676,227.600 358.367 M244.600 373.200 C 244.160 373.389,244.010 373.556,244.267 373.572 C 244.524 373.587,245.019 373.709,245.367 373.843 C 245.782 374.002,246.000 373.865,246.000 373.443 C 246.000 372.731,245.779 372.693,244.600 373.200 M246.684 375.600 C 246.799 376.040,247.164 376.400,247.496 376.400 C 247.954 376.400,247.992 376.272,247.652 375.863 C 247.407 375.568,247.325 375.208,247.470 375.063 C 247.615 374.918,247.450 374.800,247.104 374.800 C 246.672 374.800,246.540 375.050,246.684 375.600 M247.789 375.218 C 247.658 375.429,248.013 375.777,248.576 375.991 C 249.139 376.205,249.600 376.494,249.600 376.633 C 249.600 376.772,249.321 376.778,248.979 376.647 C 248.638 376.516,248.461 376.576,248.587 376.779 C 248.713 376.983,249.153 377.124,249.565 377.093 C 250.269 377.040,250.275 376.982,249.657 376.135 C 248.875 375.062,248.116 374.689,247.789 375.218 " stroke="none" fill="#048404" fill-rule="evenodd"></path></g></svg>