<svg id="svg" xmlns="http://www.w3.org/2000/svg" xmlns:xlink="http://www.w3.org/1999/xlink" width="400" height="400" viewBox="0, 0, 400,400"><g id="svgg"><path id="path0" d="M211.203 46.211 C 210.741 46.469,210.123 46.600,209.365 46.600 C 208.737 46.600,208.168 46.690,208.100 46.800 C 208.032 46.910,207.599 47.001,207.138 47.001 C 206.677 47.002,206.042 47.137,205.727 47.301 C 205.412 47.466,204.867 47.600,204.515 47.600 C 204.164 47.600,203.702 47.732,203.488 47.894 C 203.275 48.055,202.830 48.193,202.500 48.200 C 202.170 48.207,201.725 48.345,201.512 48.506 C 201.298 48.668,200.876 48.800,200.574 48.800 C 200.271 48.800,199.968 48.890,199.900 49.000 C 199.832 49.110,199.579 49.201,199.338 49.201 C 199.097 49.202,198.642 49.337,198.327 49.501 C 198.012 49.666,197.607 49.803,197.427 49.806 C 197.247 49.810,196.925 49.945,196.712 50.106 C 196.498 50.268,196.154 50.400,195.947 50.400 C 195.741 50.400,195.436 50.535,195.271 50.700 C 195.106 50.865,194.791 51.000,194.571 51.000 C 194.351 51.000,194.036 51.135,193.871 51.300 C 193.706 51.465,193.403 51.600,193.198 51.600 C 192.992 51.600,192.768 51.690,192.700 51.800 C 192.632 51.910,192.413 52.000,192.213 52.000 C 192.013 52.000,191.737 52.135,191.600 52.300 C 191.463 52.465,191.193 52.600,191.000 52.600 C 190.807 52.600,190.537 52.735,190.400 52.900 C 190.263 53.065,189.982 53.200,189.776 53.200 C 189.569 53.200,189.400 53.273,189.400 53.363 C 189.400 53.452,188.972 53.724,188.450 53.967 C 187.928 54.210,187.230 54.585,186.900 54.801 C 186.570 55.017,186.120 55.287,185.900 55.400 C 185.680 55.513,185.230 55.786,184.900 56.005 C 184.570 56.225,184.143 56.459,183.950 56.526 C 183.758 56.592,183.600 56.716,183.600 56.800 C 183.600 56.884,183.442 57.006,183.250 57.071 C 182.752 57.238,182.127 57.657,181.940 57.950 C 181.852 58.088,181.690 58.200,181.579 58.200 C 181.366 58.200,178.439 60.308,178.100 60.706 C 177.990 60.835,177.540 61.198,177.100 61.513 C 176.660 61.827,176.154 62.223,175.975 62.392 C 175.797 62.562,174.996 63.285,174.196 64.000 C 172.240 65.748,170.408 67.575,168.600 69.578 C 166.636 71.754,166.794 71.570,166.005 72.600 C 165.626 73.095,165.065 73.765,164.758 74.088 C 164.451 74.411,164.199 74.771,164.197 74.888 C 164.195 75.005,163.837 75.505,163.400 76.000 C 162.963 76.495,162.605 76.977,162.603 77.071 C 162.601 77.165,162.330 77.583,162.000 78.000 C 161.670 78.417,161.400 78.857,161.400 78.979 C 161.400 79.100,161.326 79.200,161.235 79.200 C 161.145 79.200,160.869 79.605,160.621 80.100 C 160.374 80.595,160.088 81.000,159.986 81.000 C 159.884 81.000,159.800 81.169,159.800 81.376 C 159.800 81.582,159.679 81.852,159.531 81.974 C 159.383 82.097,159.099 82.558,158.901 82.999 C 158.702 83.439,158.463 83.800,158.370 83.800 C 158.276 83.800,158.200 83.969,158.200 84.176 C 158.200 84.382,158.065 84.663,157.900 84.800 C 157.735 84.937,157.600 85.221,157.600 85.431 C 157.600 85.641,157.465 85.864,157.300 85.928 C 157.135 85.991,157.000 86.258,157.000 86.521 C 157.000 87.115,156.928 87.116,156.137 86.525 C 155.439 86.004,153.947 85.114,153.269 84.815 C 153.033 84.710,152.780 84.529,152.708 84.412 C 152.635 84.296,152.440 84.200,152.274 84.200 C 152.108 84.200,151.836 84.065,151.671 83.900 C 151.506 83.735,151.198 83.600,150.986 83.600 C 150.774 83.600,150.600 83.510,150.600 83.400 C 150.600 83.290,150.426 83.200,150.214 83.200 C 150.002 83.200,149.694 83.065,149.529 82.900 C 149.364 82.735,149.049 82.600,148.829 82.600 C 148.609 82.600,148.294 82.465,148.129 82.300 C 147.964 82.135,147.608 82.000,147.339 82.000 C 147.069 82.000,146.737 81.865,146.600 81.700 C 146.463 81.535,146.065 81.400,145.716 81.400 C 145.366 81.400,144.991 81.311,144.882 81.202 C 144.651 80.971,143.210 80.637,141.494 80.416 C 140.830 80.330,140.093 80.157,139.857 80.030 C 139.164 79.660,130.983 79.718,130.069 80.100 C 129.674 80.265,128.872 80.400,128.287 80.400 C 127.702 80.400,127.168 80.490,127.100 80.600 C 127.032 80.710,126.689 80.801,126.338 80.801 C 125.987 80.802,125.442 80.937,125.127 81.101 C 124.812 81.266,124.317 81.403,124.027 81.406 C 123.737 81.410,123.325 81.545,123.112 81.706 C 122.898 81.868,122.568 82.000,122.378 82.000 C 122.188 82.000,121.778 82.127,121.466 82.283 C 121.155 82.438,120.585 82.701,120.200 82.868 C 119.033 83.372,118.116 83.801,117.800 83.991 C 117.635 84.090,117.365 84.224,117.200 84.288 C 117.035 84.352,116.630 84.584,116.300 84.805 C 115.970 85.025,115.543 85.259,115.350 85.326 C 115.158 85.392,115.000 85.516,115.000 85.600 C 115.000 85.684,114.843 85.806,114.650 85.871 C 114.152 86.038,113.527 86.457,113.340 86.750 C 113.252 86.887,113.072 87.000,112.940 87.001 C 112.808 87.001,112.372 87.294,111.971 87.651 C 111.570 88.008,110.858 88.615,110.389 89.000 C 108.672 90.409,106.192 93.024,104.700 95.000 C 104.160 95.715,103.663 96.345,103.594 96.400 C 103.526 96.455,103.258 96.883,102.998 97.350 C 102.739 97.818,102.453 98.200,102.363 98.200 C 102.273 98.200,102.200 98.383,102.200 98.606 C 102.200 98.830,102.065 99.064,101.900 99.128 C 101.735 99.191,101.600 99.408,101.600 99.610 C 101.600 99.811,101.516 100.028,101.414 100.091 C 101.206 100.220,99.800 103.108,99.800 103.408 C 99.800 103.513,99.710 103.600,99.600 103.600 C 99.490 103.600,99.400 103.859,99.400 104.176 C 99.400 104.492,99.265 104.863,99.100 105.000 C 98.935 105.137,98.797 105.485,98.794 105.774 C 98.790 106.064,98.655 106.475,98.494 106.688 C 98.332 106.902,98.200 107.312,98.200 107.600 C 98.200 107.888,98.068 108.298,97.906 108.512 C 97.745 108.725,97.610 109.267,97.606 109.717 C 97.603 110.166,97.533 110.600,97.450 110.682 C 97.290 110.841,96.872 113.325,96.673 115.300 C 96.540 116.623,96.341 117.000,95.773 117.000 C 95.565 117.000,95.238 117.077,95.047 117.171 C 94.617 117.382,93.403 117.921,93.000 118.079 C 92.835 118.144,92.543 118.288,92.350 118.399 C 92.158 118.509,91.843 118.691,91.650 118.801 C 91.458 118.912,91.165 119.058,91.000 119.126 C 89.657 119.679,87.697 120.735,87.244 121.150 C 87.094 121.287,86.850 121.400,86.702 121.400 C 86.554 121.400,86.403 121.468,86.367 121.550 C 86.285 121.733,84.636 122.844,84.150 123.044 C 83.958 123.123,83.800 123.280,83.800 123.394 C 83.800 123.507,83.700 123.600,83.579 123.600 C 83.394 123.600,81.931 124.635,81.600 125.000 C 81.545 125.061,81.095 125.421,80.600 125.800 C 78.335 127.534,74.286 131.620,72.523 133.950 C 72.002 134.638,71.508 135.200,71.424 135.200 C 71.340 135.200,71.069 135.605,70.821 136.100 C 70.574 136.595,70.288 137.000,70.186 137.000 C 70.084 137.000,70.000 137.080,70.000 137.179 C 70.000 137.277,69.505 138.089,68.900 138.982 C 68.295 139.876,67.800 140.743,67.800 140.910 C 67.800 141.076,67.665 141.264,67.500 141.328 C 67.335 141.391,67.200 141.602,67.200 141.797 C 67.200 141.992,67.065 142.263,66.900 142.400 C 66.735 142.537,66.600 142.807,66.600 143.000 C 66.600 143.193,66.465 143.463,66.300 143.600 C 66.135 143.737,66.000 144.013,66.000 144.213 C 66.000 144.413,65.910 144.632,65.800 144.700 C 65.690 144.768,65.600 145.001,65.600 145.218 C 65.600 145.435,65.465 145.664,65.300 145.728 C 65.135 145.791,65.000 146.065,65.000 146.336 C 65.000 146.607,64.865 146.964,64.700 147.129 C 64.535 147.294,64.400 147.683,64.400 147.993 C 64.400 148.310,64.269 148.608,64.100 148.672 C 63.935 148.736,63.797 149.038,63.794 149.344 C 63.790 149.650,63.655 150.075,63.494 150.288 C 63.332 150.502,63.200 150.974,63.200 151.338 C 63.200 151.702,63.110 152.000,63.000 152.000 C 62.890 152.000,62.800 152.343,62.800 152.762 C 62.800 153.181,62.668 153.698,62.506 153.912 C 62.345 154.125,62.207 154.660,62.199 155.100 C 62.192 155.540,62.057 156.125,61.900 156.400 C 61.663 156.815,61.614 158.598,61.614 166.900 C 61.614 175.202,61.663 176.985,61.900 177.400 C 62.057 177.675,62.189 178.265,62.193 178.712 C 62.197 179.158,62.332 179.698,62.494 179.912 C 62.655 180.125,62.790 180.638,62.794 181.050 C 62.797 181.463,62.890 181.800,63.000 181.800 C 63.110 181.800,63.203 182.138,63.206 182.550 C 63.210 182.963,63.345 183.475,63.506 183.688 C 63.668 183.902,63.800 184.291,63.800 184.553 C 63.800 184.814,63.935 185.164,64.100 185.329 C 64.265 185.494,64.400 185.883,64.400 186.193 C 64.400 186.510,64.531 186.808,64.700 186.872 C 64.865 186.936,65.000 187.163,65.000 187.378 C 65.000 187.720,65.292 188.429,65.835 189.400 C 65.927 189.565,66.058 189.835,66.126 190.000 C 66.720 191.448,66.899 191.800,67.038 191.800 C 67.127 191.800,67.200 191.941,67.200 192.113 C 67.200 192.286,67.415 192.713,67.677 193.063 C 67.939 193.414,68.215 193.903,68.290 194.150 C 68.365 194.398,68.511 194.600,68.613 194.600 C 68.716 194.600,68.800 194.766,68.800 194.969 C 68.800 195.172,68.974 195.495,69.186 195.687 C 69.398 195.879,69.717 196.343,69.895 196.718 C 70.073 197.093,70.305 197.400,70.409 197.400 C 70.514 197.400,70.600 197.535,70.600 197.700 C 70.600 197.865,70.684 198.000,70.787 198.000 C 70.889 198.000,71.023 198.157,71.084 198.350 C 71.146 198.543,71.401 198.925,71.653 199.200 C 71.905 199.475,72.557 200.285,73.103 201.000 C 74.687 203.075,79.444 207.722,81.550 209.251 C 82.018 209.590,82.400 209.943,82.400 210.034 C 82.400 210.125,82.491 210.200,82.603 210.200 C 82.772 210.200,84.806 211.571,85.500 212.153 C 85.610 212.245,85.835 212.384,86.000 212.462 C 86.165 212.540,86.570 212.780,86.900 212.995 C 87.230 213.210,87.860 213.572,88.300 213.800 C 88.740 214.028,89.370 214.390,89.700 214.605 C 90.030 214.820,90.435 215.048,90.600 215.112 C 90.765 215.176,91.035 215.313,91.200 215.416 C 91.365 215.518,91.635 215.655,91.800 215.719 C 93.030 216.198,94.402 216.786,95.066 217.117 C 95.378 217.273,95.794 217.400,95.992 217.400 C 96.189 217.400,96.463 217.535,96.600 217.700 C 96.737 217.865,97.028 218.000,97.248 218.000 C 97.659 218.000,99.435 218.525,100.047 218.828 C 100.238 218.923,100.643 219.003,100.947 219.007 C 101.251 219.011,101.725 219.143,102.000 219.300 C 102.275 219.457,102.843 219.589,103.263 219.593 C 103.683 219.597,104.223 219.711,104.463 219.846 C 104.703 219.981,105.575 220.151,106.400 220.222 C 107.225 220.294,108.260 220.451,108.700 220.572 C 110.070 220.946,162.813 220.883,163.312 220.506 C 163.525 220.345,163.838 220.210,164.006 220.206 C 164.345 220.199,166.400 218.321,166.400 218.019 C 166.400 217.914,166.550 217.678,166.734 217.495 C 167.264 216.965,167.240 213.141,166.700 212.092 C 166.227 211.175,165.156 210.123,164.258 209.695 C 163.906 209.527,163.563 209.302,163.497 209.195 C 163.420 209.070,154.548 208.994,138.938 208.983 C 125.179 208.974,113.976 208.886,113.300 208.782 C 112.640 208.681,111.155 208.543,110.000 208.474 C 108.845 208.406,107.657 208.226,107.360 208.075 C 107.063 207.924,106.416 207.800,105.922 207.800 C 105.428 207.800,104.970 207.713,104.904 207.606 C 104.838 207.499,104.335 207.352,103.787 207.279 C 103.239 207.207,102.743 207.069,102.684 206.974 C 102.625 206.878,102.329 206.800,102.026 206.800 C 101.724 206.800,101.302 206.668,101.088 206.506 C 100.875 206.345,100.509 206.210,100.274 206.206 C 100.040 206.203,99.737 206.065,99.600 205.900 C 99.463 205.735,99.189 205.600,98.992 205.600 C 98.794 205.600,98.378 205.468,98.066 205.307 C 97.755 205.147,97.118 204.859,96.650 204.669 C 96.182 204.479,95.800 204.250,95.800 204.162 C 95.800 204.073,95.638 204.000,95.440 204.000 C 95.242 204.000,94.980 203.900,94.857 203.777 C 94.616 203.536,94.104 203.232,93.000 202.677 C 92.615 202.483,91.789 201.936,91.165 201.462 C 90.541 200.988,89.979 200.600,89.917 200.600 C 89.644 200.600,85.900 197.270,84.600 195.871 C 82.351 193.452,80.000 190.473,80.000 190.042 C 80.000 189.920,79.888 189.748,79.750 189.660 C 79.464 189.477,78.681 188.165,78.370 187.350 C 78.255 187.048,78.080 186.800,77.980 186.800 C 77.881 186.800,77.800 186.631,77.800 186.424 C 77.800 186.218,77.665 185.937,77.500 185.800 C 77.335 185.663,77.200 185.393,77.200 185.200 C 77.200 185.007,77.065 184.737,76.900 184.600 C 76.735 184.463,76.600 184.187,76.600 183.987 C 76.600 183.787,76.510 183.568,76.400 183.500 C 76.290 183.432,76.199 183.224,76.199 183.038 C 76.198 182.852,76.063 182.442,75.899 182.127 C 75.734 181.812,75.597 181.407,75.594 181.227 C 75.590 181.047,75.455 180.725,75.294 180.512 C 75.132 180.298,74.997 179.893,74.994 179.612 C 74.990 179.330,74.855 178.925,74.694 178.712 C 74.532 178.498,74.400 177.986,74.400 177.574 C 74.400 177.161,74.310 176.768,74.200 176.700 C 74.090 176.632,74.000 176.219,74.000 175.782 C 74.000 175.345,73.865 174.664,73.700 174.269 C 73.535 173.874,73.400 172.983,73.400 172.289 C 73.400 171.594,73.254 170.161,73.075 169.104 C 72.776 167.331,72.776 167.008,73.075 164.925 C 73.254 163.683,73.400 162.040,73.400 161.274 C 73.400 160.507,73.498 159.782,73.617 159.663 C 73.736 159.544,73.884 158.893,73.945 158.217 C 74.006 157.542,74.134 156.941,74.228 156.883 C 74.323 156.824,74.400 156.522,74.400 156.211 C 74.400 155.900,74.534 155.388,74.699 155.073 C 74.863 154.758,74.998 154.259,74.999 153.964 C 74.999 153.670,75.135 153.294,75.300 153.129 C 75.465 152.964,75.600 152.697,75.600 152.537 C 75.600 152.377,75.734 151.988,75.899 151.673 C 76.063 151.358,76.198 150.898,76.199 150.650 C 76.199 150.403,76.290 150.200,76.400 150.200 C 76.510 150.200,76.600 150.031,76.600 149.824 C 76.600 149.618,76.735 149.337,76.900 149.200 C 77.065 149.063,77.200 148.793,77.200 148.600 C 77.200 148.407,77.335 148.137,77.500 148.000 C 77.665 147.863,77.800 147.587,77.800 147.387 C 77.800 147.187,77.881 146.974,77.979 146.913 C 78.078 146.852,78.343 146.448,78.568 146.016 C 79.187 144.830,79.487 144.311,79.620 144.200 C 79.686 144.145,79.858 143.875,80.001 143.600 C 80.145 143.325,80.563 142.731,80.931 142.279 C 81.299 141.828,81.600 141.394,81.600 141.315 C 81.600 140.939,86.002 136.282,87.800 134.757 C 89.195 133.573,91.903 131.620,92.863 131.105 C 93.268 130.887,93.600 130.640,93.600 130.555 C 93.600 130.470,93.770 130.400,93.979 130.400 C 94.187 130.400,94.409 130.265,94.472 130.100 C 94.536 129.935,94.759 129.800,94.969 129.800 C 95.179 129.800,95.463 129.665,95.600 129.500 C 95.737 129.335,96.007 129.200,96.200 129.200 C 96.393 129.200,96.663 129.065,96.800 128.900 C 96.937 128.735,97.213 128.600,97.413 128.600 C 97.613 128.600,97.832 128.510,97.900 128.400 C 97.968 128.290,98.232 128.200,98.487 128.200 C 98.742 128.200,99.063 128.065,99.200 127.900 C 99.337 127.735,99.652 127.600,99.900 127.600 C 100.148 127.600,100.463 127.465,100.600 127.300 C 100.737 127.135,101.130 126.997,101.474 126.994 C 101.819 126.990,102.275 126.855,102.488 126.694 C 102.702 126.532,103.129 126.400,103.438 126.400 C 103.747 126.400,104.000 126.321,104.000 126.225 C 104.000 126.129,104.254 125.999,104.564 125.937 C 105.582 125.734,107.800 123.314,107.800 122.407 C 107.800 122.183,107.890 122.000,108.000 122.000 C 108.117 122.000,108.205 121.276,108.211 120.250 C 108.232 117.040,108.769 112.351,109.161 111.959 C 109.292 111.828,109.403 111.445,109.406 111.110 C 109.410 110.774,109.545 110.325,109.706 110.112 C 109.868 109.898,110.000 109.521,110.000 109.274 C 110.000 109.026,110.090 108.768,110.200 108.700 C 110.310 108.632,110.400 108.413,110.400 108.213 C 110.400 108.013,110.535 107.737,110.700 107.600 C 110.865 107.463,111.000 107.147,111.000 106.897 C 111.000 106.647,111.135 106.391,111.300 106.328 C 111.465 106.264,111.600 106.030,111.600 105.806 C 111.600 105.583,111.684 105.400,111.787 105.400 C 111.889 105.400,112.035 105.197,112.111 104.950 C 112.453 103.837,117.868 97.600,118.493 97.600 C 118.561 97.600,118.751 97.488,118.915 97.350 C 119.805 96.605,120.368 96.233,120.850 96.071 C 121.043 96.006,121.200 95.883,121.200 95.797 C 121.200 95.595,122.721 94.800,123.106 94.800 C 123.268 94.800,123.400 94.710,123.400 94.600 C 123.400 94.490,123.569 94.400,123.776 94.400 C 123.982 94.400,124.263 94.265,124.400 94.100 C 124.537 93.935,124.897 93.800,125.200 93.800 C 125.503 93.800,125.863 93.665,126.000 93.500 C 126.137 93.335,126.490 93.200,126.784 93.200 C 127.079 93.200,127.426 93.094,127.555 92.965 C 127.685 92.835,128.220 92.659,128.745 92.573 C 129.270 92.486,130.240 92.323,130.900 92.210 C 133.198 91.816,140.639 91.977,140.916 92.426 C 140.975 92.522,141.356 92.603,141.762 92.607 C 142.168 92.611,142.725 92.743,143.000 92.900 C 143.275 93.057,143.736 93.189,144.026 93.193 C 144.315 93.197,144.663 93.335,144.800 93.500 C 144.937 93.665,145.297 93.800,145.600 93.800 C 145.903 93.800,146.263 93.935,146.400 94.100 C 146.537 94.265,146.759 94.400,146.894 94.400 C 147.169 94.400,148.446 94.998,148.600 95.199 C 148.655 95.271,148.835 95.391,149.000 95.467 C 149.165 95.542,149.570 95.782,149.900 96.000 C 150.230 96.218,150.635 96.459,150.800 96.537 C 150.965 96.614,151.209 96.773,151.343 96.889 C 151.966 97.430,152.191 97.600,152.283 97.600 C 152.338 97.600,152.769 97.970,153.242 98.422 C 154.532 99.658,156.328 101.000,156.692 101.000 C 156.869 101.000,157.233 101.143,157.500 101.318 C 158.962 102.276,164.200 100.081,164.200 98.510 C 164.200 98.367,164.335 98.137,164.500 98.000 C 164.665 97.863,164.800 97.548,164.800 97.300 C 164.800 97.052,164.935 96.737,165.100 96.600 C 165.265 96.463,165.400 96.181,165.400 95.973 C 165.400 95.765,165.487 95.438,165.593 95.247 C 165.941 94.621,166.600 93.027,166.600 92.811 C 166.600 92.695,166.690 92.600,166.800 92.600 C 166.910 92.600,167.000 92.431,167.000 92.224 C 167.000 92.018,167.135 91.737,167.300 91.600 C 167.465 91.463,167.600 91.193,167.600 91.000 C 167.600 90.807,167.735 90.537,167.900 90.400 C 168.065 90.263,168.200 90.013,168.200 89.844 C 168.200 89.676,168.425 89.243,168.700 88.882 C 168.975 88.522,169.200 88.086,169.200 87.913 C 169.200 87.741,169.286 87.600,169.391 87.600 C 169.495 87.600,169.729 87.289,169.909 86.909 C 170.089 86.529,170.364 86.113,170.518 85.985 C 170.673 85.856,170.800 85.639,170.800 85.503 C 170.800 85.366,171.069 84.950,171.397 84.577 C 171.725 84.205,171.995 83.809,171.997 83.698 C 171.999 83.587,172.205 83.272,172.457 82.998 C 172.708 82.724,173.120 82.163,173.373 81.750 C 173.626 81.338,173.915 81.000,174.016 81.000 C 174.117 81.000,174.200 80.906,174.200 80.790 C 174.200 80.675,174.404 80.383,174.653 80.140 C 174.901 79.898,175.461 79.250,175.896 78.700 C 176.870 77.470,180.980 73.352,182.185 72.399 C 182.671 72.015,183.211 71.556,183.385 71.381 C 183.633 71.128,185.761 69.559,188.711 67.451 C 189.136 67.147,189.710 66.794,190.100 66.597 C 190.320 66.485,190.770 66.219,191.100 66.004 C 191.430 65.789,192.077 65.431,192.538 65.207 C 192.999 64.984,193.432 64.711,193.500 64.601 C 193.568 64.490,193.787 64.400,193.987 64.400 C 194.187 64.400,194.463 64.265,194.600 64.100 C 194.737 63.935,194.979 63.800,195.139 63.800 C 195.298 63.800,195.564 63.665,195.729 63.500 C 195.894 63.335,196.202 63.200,196.414 63.200 C 196.626 63.200,196.800 63.110,196.800 63.000 C 196.800 62.890,196.963 62.800,197.162 62.800 C 197.361 62.800,197.698 62.668,197.912 62.506 C 198.125 62.345,198.491 62.210,198.726 62.206 C 198.960 62.203,199.263 62.065,199.400 61.900 C 199.537 61.735,199.840 61.597,200.074 61.594 C 200.309 61.590,200.675 61.455,200.888 61.294 C 201.102 61.132,201.511 61.000,201.798 61.000 C 202.085 61.000,202.406 60.923,202.510 60.829 C 202.763 60.601,204.677 60.000,205.149 60.000 C 205.355 60.000,205.698 59.868,205.912 59.706 C 206.125 59.545,206.660 59.407,207.100 59.400 C 207.540 59.393,208.075 59.255,208.288 59.094 C 208.502 58.932,209.099 58.800,209.615 58.800 C 210.132 58.800,210.812 58.666,211.127 58.501 C 211.468 58.324,212.242 58.202,213.038 58.201 C 213.774 58.201,214.423 58.124,214.480 58.032 C 214.900 57.353,232.732 57.852,233.442 58.562 C 233.573 58.693,234.135 58.803,234.690 58.806 C 235.259 58.810,235.869 58.941,236.088 59.106 C 236.302 59.268,236.853 59.400,237.314 59.400 C 237.814 59.400,238.251 59.521,238.400 59.700 C 238.542 59.871,238.978 60.000,239.413 60.000 C 239.833 60.000,240.227 60.082,240.289 60.183 C 240.351 60.283,240.761 60.426,241.200 60.500 C 241.639 60.574,242.049 60.717,242.111 60.817 C 242.173 60.918,242.426 61.000,242.674 61.000 C 242.921 61.000,243.298 61.132,243.512 61.294 C 243.725 61.455,244.091 61.590,244.326 61.594 C 244.560 61.597,244.863 61.735,245.000 61.900 C 245.137 62.065,245.440 62.203,245.674 62.206 C 245.909 62.210,246.275 62.345,246.488 62.506 C 246.702 62.668,247.039 62.800,247.238 62.800 C 247.437 62.800,247.600 62.890,247.600 63.000 C 247.600 63.110,247.732 63.200,247.894 63.200 C 248.247 63.200,249.872 64.016,249.967 64.241 C 250.003 64.328,250.195 64.400,250.392 64.400 C 250.590 64.400,250.863 64.535,251.000 64.700 C 251.137 64.865,251.418 65.000,251.624 65.000 C 251.831 65.000,252.000 65.080,252.000 65.178 C 252.000 65.276,252.225 65.413,252.500 65.482 C 252.775 65.551,253.000 65.696,253.000 65.804 C 253.000 65.912,253.129 66.000,253.286 66.000 C 253.443 66.000,253.690 66.118,253.836 66.261 C 253.981 66.405,254.235 66.588,254.400 66.669 C 255.168 67.045,257.280 68.455,257.367 68.650 C 257.403 68.733,257.564 68.800,257.723 68.800 C 257.882 68.800,258.064 68.935,258.128 69.100 C 258.191 69.265,258.347 69.400,258.473 69.400 C 258.600 69.400,258.928 69.603,259.202 69.852 C 259.476 70.101,260.105 70.615,260.600 70.995 C 262.059 72.115,262.330 72.364,265.397 75.400 C 267.008 76.995,268.770 78.882,269.313 79.594 C 269.856 80.305,270.502 81.080,270.750 81.316 C 270.998 81.553,271.200 81.803,271.200 81.872 C 271.200 81.986,272.699 84.137,273.197 84.739 C 273.306 84.870,273.585 85.342,273.818 85.789 C 274.050 86.235,274.311 86.600,274.397 86.600 C 274.483 86.600,274.605 86.758,274.669 86.950 C 274.822 87.417,275.731 89.011,275.992 89.272 C 276.106 89.386,276.200 89.631,276.200 89.816 C 276.200 90.000,276.335 90.263,276.500 90.400 C 276.665 90.537,276.800 90.807,276.800 91.000 C 276.800 91.193,276.935 91.463,277.100 91.600 C 277.265 91.737,277.400 92.018,277.400 92.224 C 277.400 92.431,277.490 92.600,277.600 92.600 C 277.710 92.600,277.800 92.828,277.800 93.106 C 277.800 93.385,277.935 93.664,278.100 93.728 C 278.265 93.791,278.400 94.047,278.400 94.297 C 278.400 94.547,278.535 94.863,278.700 95.000 C 278.865 95.137,279.000 95.508,279.000 95.824 C 279.000 96.141,279.080 96.400,279.177 96.400 C 279.384 96.400,280.000 98.186,280.000 98.788 C 280.000 99.014,280.086 99.200,280.191 99.200 C 280.296 99.200,280.441 99.538,280.513 99.950 C 280.586 100.363,280.770 100.899,280.922 101.143 C 281.075 101.387,281.203 101.882,281.206 102.243 C 281.210 102.604,281.345 103.075,281.506 103.288 C 281.668 103.502,281.800 104.064,281.800 104.538 C 281.800 105.012,281.890 105.400,282.000 105.400 C 282.110 105.400,282.204 105.828,282.209 106.350 C 282.214 106.873,282.347 107.660,282.506 108.100 C 282.664 108.540,282.795 109.406,282.797 110.025 C 282.799 110.644,282.935 111.532,283.100 112.000 C 283.535 113.233,283.537 123.886,283.102 125.318 C 282.727 126.555,282.720 127.660,283.081 128.470 C 283.236 128.816,283.415 129.339,283.480 129.631 C 283.620 130.259,285.914 132.600,286.390 132.600 C 286.571 132.600,286.832 132.713,286.969 132.850 C 287.128 133.009,288.176 133.148,289.859 133.233 C 293.924 133.437,296.382 133.702,296.643 133.963 C 296.773 134.093,297.301 134.200,297.816 134.200 C 298.403 134.200,298.844 134.312,299.000 134.500 C 299.137 134.665,299.575 134.803,299.974 134.806 C 300.374 134.810,300.875 134.945,301.088 135.106 C 301.302 135.268,301.629 135.400,301.815 135.400 C 302.002 135.400,302.412 135.534,302.727 135.699 C 303.042 135.863,303.457 135.998,303.650 135.999 C 303.843 135.999,304.000 136.090,304.000 136.200 C 304.000 136.310,304.214 136.400,304.476 136.400 C 304.737 136.400,305.063 136.535,305.200 136.700 C 305.337 136.865,305.607 137.000,305.800 137.000 C 305.993 137.000,306.263 137.135,306.400 137.300 C 306.537 137.465,306.818 137.600,307.024 137.600 C 307.231 137.600,307.400 137.688,307.400 137.796 C 307.400 137.904,307.625 138.049,307.900 138.118 C 308.175 138.187,308.400 138.313,308.400 138.398 C 308.400 138.484,308.558 138.606,308.750 138.671 C 309.277 138.848,313.131 141.563,313.981 142.356 C 315.800 144.054,317.571 145.886,318.264 146.789 C 318.724 147.388,319.303 148.099,319.550 148.368 C 319.798 148.638,320.001 148.958,320.003 149.079 C 320.005 149.201,320.275 149.605,320.603 149.977 C 320.931 150.350,321.200 150.738,321.200 150.840 C 321.200 150.943,321.425 151.322,321.700 151.682 C 321.975 152.043,322.200 152.431,322.200 152.544 C 322.200 152.658,322.335 152.863,322.500 153.000 C 322.665 153.137,322.800 153.453,322.800 153.703 C 322.800 153.953,322.935 154.209,323.100 154.272 C 323.265 154.336,323.400 154.526,323.400 154.696 C 323.400 155.008,323.457 155.151,324.066 156.366 C 324.250 156.733,324.400 157.240,324.400 157.495 C 324.400 157.749,324.535 158.009,324.700 158.072 C 324.885 158.144,325.000 158.448,325.000 158.869 C 325.000 159.244,325.126 159.655,325.280 159.783 C 325.434 159.911,325.608 160.349,325.668 160.758 C 325.956 162.724,326.178 163.785,326.379 164.161 C 326.501 164.388,326.600 165.114,326.600 165.774 C 326.600 166.434,326.746 167.839,326.925 168.896 C 327.201 170.529,327.213 171.065,327.004 172.459 C 326.870 173.362,326.693 174.910,326.611 175.900 C 326.529 176.890,326.358 177.953,326.231 178.263 C 326.104 178.573,326.000 179.130,326.000 179.501 C 326.000 179.873,325.910 180.232,325.800 180.300 C 325.690 180.368,325.600 180.772,325.600 181.198 C 325.600 181.623,325.465 182.106,325.300 182.271 C 325.135 182.436,325.000 182.837,325.000 183.161 C 325.000 183.486,324.865 183.863,324.700 184.000 C 324.535 184.137,324.400 184.419,324.400 184.627 C 324.400 184.835,324.313 185.162,324.207 185.353 C 323.859 185.979,323.200 187.573,323.200 187.789 C 323.200 187.905,323.110 188.000,323.000 188.000 C 322.890 188.000,322.800 188.139,322.800 188.308 C 322.800 188.478,322.620 188.883,322.400 189.208 C 322.180 189.534,321.833 190.049,321.628 190.354 C 321.424 190.658,321.193 191.108,321.115 191.354 C 321.037 191.599,320.889 191.800,320.787 191.800 C 320.684 191.800,320.600 191.925,320.600 192.079 C 320.600 192.232,320.465 192.409,320.300 192.472 C 320.135 192.536,320.000 192.712,320.000 192.865 C 320.000 193.017,319.785 193.374,319.522 193.657 C 319.259 193.941,318.638 194.696,318.140 195.336 C 316.291 197.716,311.439 202.020,309.700 202.821 C 309.480 202.923,309.030 203.183,308.700 203.400 C 308.370 203.617,307.906 203.880,307.669 203.985 C 307.433 204.090,307.180 204.271,307.108 204.388 C 307.035 204.504,306.802 204.600,306.588 204.600 C 306.375 204.600,306.200 204.690,306.200 204.800 C 306.200 204.910,306.037 205.000,305.838 205.000 C 305.639 205.000,305.302 205.132,305.088 205.294 C 304.875 205.455,304.554 205.590,304.374 205.594 C 304.195 205.597,303.937 205.735,303.800 205.900 C 303.663 206.065,303.360 206.203,303.126 206.206 C 302.891 206.210,302.525 206.345,302.312 206.506 C 302.098 206.668,301.676 206.800,301.374 206.800 C 301.071 206.800,300.774 206.880,300.714 206.977 C 300.654 207.074,300.201 207.214,299.707 207.288 C 299.213 207.363,298.757 207.508,298.693 207.612 C 298.629 207.715,298.213 207.800,297.768 207.800 C 297.324 207.800,296.677 207.928,296.330 208.085 C 295.984 208.241,294.890 208.420,293.900 208.481 C 292.910 208.543,291.560 208.677,290.900 208.780 C 290.206 208.888,278.542 208.973,263.240 208.983 L 236.781 209.000 235.740 209.672 C 233.341 211.222,232.894 212.068,232.916 215.015 C 232.930 216.737,232.999 217.227,233.266 217.495 C 233.450 217.678,233.600 217.914,233.600 218.019 C 233.600 218.321,235.655 220.199,235.994 220.206 C 236.162 220.210,236.475 220.345,236.688 220.506 C 237.186 220.883,293.926 220.947,295.300 220.573 C 295.740 220.453,296.748 220.297,297.540 220.227 C 298.332 220.157,299.093 219.988,299.230 219.850 C 299.368 219.713,299.890 219.597,300.390 219.594 C 300.891 219.590,301.475 219.455,301.688 219.294 C 301.902 219.132,302.369 219.000,302.726 219.000 C 303.084 219.000,303.427 218.918,303.489 218.817 C 303.551 218.717,303.961 218.574,304.400 218.500 C 304.839 218.426,305.249 218.283,305.311 218.183 C 305.373 218.082,305.626 218.000,305.874 218.000 C 306.121 218.000,306.498 217.868,306.712 217.706 C 306.925 217.545,307.291 217.410,307.526 217.406 C 307.760 217.403,308.063 217.265,308.200 217.100 C 308.337 216.935,308.663 216.800,308.924 216.800 C 309.186 216.800,309.400 216.716,309.400 216.613 C 309.400 216.511,309.603 216.369,309.850 216.299 C 310.392 216.145,312.467 215.126,313.300 214.603 C 313.960 214.189,315.196 213.493,316.050 213.054 C 316.353 212.898,316.600 212.687,316.600 212.585 C 316.600 212.483,316.691 212.400,316.802 212.400 C 318.015 212.400,326.110 204.919,328.598 201.500 C 329.078 200.840,329.590 200.228,329.735 200.140 C 329.881 200.052,330.000 199.885,330.000 199.769 C 330.000 199.653,330.270 199.217,330.600 198.800 C 330.930 198.383,331.200 197.979,331.200 197.902 C 331.200 197.825,331.403 197.480,331.650 197.135 C 332.397 196.095,335.000 191.071,335.000 190.669 C 335.000 190.548,335.135 190.337,335.300 190.200 C 335.465 190.063,335.600 189.773,335.600 189.556 C 335.600 189.339,335.723 188.923,335.872 188.631 C 336.334 187.731,336.854 186.114,337.189 184.534 C 337.279 184.113,337.453 183.667,337.576 183.544 C 337.699 183.421,337.800 182.951,337.800 182.500 C 337.800 181.679,338.168 180.604,338.450 180.602 C 338.858 180.597,338.614 161.598,338.200 161.154 C 337.918 160.851,337.800 160.448,337.800 159.787 C 337.800 159.197,337.689 158.757,337.500 158.600 C 337.335 158.463,337.200 158.057,337.200 157.698 C 337.200 157.339,337.070 156.794,336.910 156.487 C 336.751 156.180,336.666 155.855,336.722 155.765 C 336.778 155.674,336.683 155.401,336.512 155.156 C 336.340 154.911,336.200 154.517,336.200 154.280 C 336.200 154.043,336.065 153.737,335.900 153.600 C 335.735 153.463,335.600 153.148,335.600 152.900 C 335.600 152.652,335.465 152.337,335.300 152.200 C 335.135 152.063,335.000 151.702,335.000 151.397 C 335.000 151.089,334.867 150.792,334.700 150.728 C 334.535 150.664,334.400 150.505,334.400 150.373 C 334.400 149.996,333.740 148.600,333.562 148.600 C 333.473 148.600,333.400 148.470,333.400 148.310 C 333.400 148.151,333.130 147.620,332.800 147.131 C 332.470 146.642,332.200 146.143,332.200 146.021 C 332.200 145.899,332.112 145.800,332.004 145.800 C 331.896 145.800,331.753 145.584,331.687 145.319 C 331.620 145.054,331.349 144.634,331.083 144.384 C 330.817 144.134,330.600 143.851,330.600 143.753 C 330.600 142.244,318.949 130.800,317.412 130.800 C 317.306 130.800,317.148 130.687,317.060 130.550 C 316.882 130.272,316.503 130.025,315.250 129.372 C 314.783 129.128,314.400 128.855,314.400 128.765 C 314.400 128.674,314.225 128.600,314.012 128.600 C 313.798 128.600,313.565 128.504,313.492 128.388 C 313.420 128.271,313.167 128.091,312.931 127.988 C 312.694 127.885,312.365 127.721,312.200 127.623 C 311.912 127.452,310.269 126.700,308.800 126.067 C 308.415 125.901,307.845 125.638,307.534 125.483 C 307.222 125.327,306.850 125.200,306.707 125.200 C 306.563 125.200,306.188 125.066,305.873 124.901 C 305.558 124.737,305.103 124.602,304.862 124.601 C 304.621 124.601,304.368 124.510,304.300 124.400 C 304.232 124.290,303.929 124.200,303.626 124.200 C 303.324 124.200,302.902 124.068,302.688 123.906 C 302.475 123.745,301.940 123.607,301.500 123.600 C 301.060 123.593,300.525 123.455,300.312 123.294 C 300.098 123.132,299.501 123.000,298.985 123.000 C 298.468 123.000,297.788 122.866,297.473 122.701 C 297.158 122.537,296.507 122.402,296.027 122.401 C 295.205 122.400,295.163 122.373,295.321 121.950 C 295.738 120.828,295.325 108.958,294.838 108.063 C 294.707 107.823,294.600 107.167,294.600 106.607 C 294.600 106.046,294.465 105.264,294.300 104.869 C 294.135 104.474,294.000 103.822,294.000 103.420 C 294.000 103.018,293.876 102.511,293.724 102.295 C 293.572 102.078,293.402 101.495,293.346 101.000 C 293.212 99.823,292.826 98.350,292.589 98.110 C 292.485 98.006,292.397 97.646,292.394 97.310 C 292.390 96.975,292.255 96.525,292.094 96.312 C 291.932 96.098,291.800 95.671,291.800 95.362 C 291.800 95.053,291.711 94.800,291.602 94.800 C 291.494 94.800,291.347 94.440,291.277 94.000 C 291.206 93.560,291.087 93.200,291.012 93.200 C 290.937 93.200,290.711 92.638,290.510 91.950 C 290.308 91.263,290.021 90.558,289.872 90.384 C 289.722 90.211,289.600 89.923,289.600 89.746 C 289.600 89.569,289.512 89.369,289.405 89.303 C 289.298 89.237,289.115 88.827,288.998 88.392 C 288.880 87.956,288.698 87.600,288.592 87.600 C 288.487 87.600,288.400 87.380,288.400 87.112 C 288.400 86.843,288.319 86.573,288.219 86.512 C 288.120 86.451,287.730 85.793,287.353 85.050 C 286.486 83.345,286.136 82.727,285.963 82.596 C 285.887 82.539,285.730 82.269,285.613 81.996 C 285.373 81.435,285.101 80.983,284.451 80.063 C 284.203 79.713,284.000 79.381,284.000 79.326 C 284.000 79.144,282.147 76.502,281.971 76.433 C 281.877 76.397,281.800 76.275,281.800 76.162 C 281.800 75.955,280.883 74.718,280.052 73.802 C 279.803 73.528,279.600 73.242,279.600 73.166 C 279.600 73.090,279.273 72.685,278.873 72.264 C 278.474 71.844,277.667 70.915,277.081 70.200 C 275.905 68.766,272.356 65.241,270.528 63.693 C 269.884 63.147,269.130 62.491,268.853 62.236 C 268.576 61.981,268.001 61.541,267.575 61.259 C 267.149 60.978,266.800 60.669,266.800 60.573 C 266.800 60.478,266.675 60.400,266.521 60.400 C 266.368 60.400,266.191 60.265,266.128 60.100 C 266.064 59.935,265.913 59.800,265.792 59.800 C 265.671 59.800,265.446 59.688,265.293 59.550 C 264.635 58.961,264.405 58.800,264.218 58.800 C 264.109 58.800,263.948 58.688,263.860 58.550 C 263.673 58.257,263.048 57.838,262.550 57.671 C 262.358 57.606,262.200 57.483,262.200 57.397 C 262.200 57.311,261.818 57.041,261.350 56.798 C 260.882 56.555,260.455 56.299,260.400 56.228 C 260.262 56.051,259.586 55.636,259.069 55.412 C 258.833 55.309,258.580 55.129,258.508 55.012 C 258.435 54.896,258.202 54.800,257.988 54.800 C 257.775 54.800,257.600 54.725,257.600 54.633 C 257.600 54.540,257.105 54.256,256.500 54.000 C 255.895 53.744,255.400 53.460,255.400 53.367 C 255.400 53.275,255.231 53.200,255.024 53.200 C 254.818 53.200,254.537 53.065,254.400 52.900 C 254.263 52.735,253.993 52.600,253.800 52.600 C 253.607 52.600,253.337 52.465,253.200 52.300 C 253.063 52.135,252.826 52.000,252.673 52.000 C 252.392 52.000,252.240 51.938,251.034 51.334 C 250.667 51.150,250.206 51.000,250.008 51.000 C 249.811 51.000,249.537 50.865,249.400 50.700 C 249.263 50.535,248.948 50.400,248.700 50.400 C 248.452 50.400,248.137 50.265,248.000 50.100 C 247.863 49.935,247.547 49.800,247.298 49.800 C 247.049 49.800,246.588 49.666,246.273 49.501 C 245.958 49.337,245.498 49.202,245.250 49.201 C 245.003 49.201,244.800 49.110,244.800 49.000 C 244.800 48.890,244.502 48.800,244.138 48.800 C 243.774 48.800,243.302 48.668,243.088 48.506 C 242.875 48.345,242.425 48.210,242.088 48.206 C 241.752 48.203,241.302 48.068,241.088 47.906 C 240.875 47.745,240.336 47.610,239.890 47.606 C 239.445 47.603,238.984 47.504,238.866 47.386 C 238.647 47.167,237.293 46.899,235.000 46.622 C 234.285 46.536,233.412 46.316,233.060 46.133 C 232.001 45.582,212.204 45.653,211.203 46.211 M198.000 141.732 C 197.175 142.560,189.998 149.731,182.050 157.667 C 174.103 165.604,167.600 172.165,167.600 172.249 C 167.600 172.332,167.465 172.400,167.300 172.400 C 167.135 172.400,167.000 172.550,167.000 172.734 C 167.000 172.918,166.848 173.237,166.661 173.443 C 166.167 173.989,166.174 178.358,166.670 178.635 C 166.851 178.737,167.000 178.947,167.000 179.103 C 167.000 179.408,168.301 180.800,168.585 180.800 C 168.680 180.800,168.809 180.935,168.872 181.100 C 168.936 181.265,169.128 181.400,169.301 181.400 C 169.473 181.400,169.834 181.544,170.102 181.720 C 170.787 182.168,173.813 182.168,174.498 181.720 C 174.766 181.544,175.076 181.400,175.187 181.400 C 175.558 181.400,193.600 163.562,193.600 163.195 C 193.600 163.111,193.735 162.991,193.900 162.928 C 194.166 162.826,194.200 168.380,194.200 212.182 C 194.200 255.822,194.235 261.580,194.500 261.800 C 194.665 261.937,194.800 262.173,194.800 262.325 C 194.800 262.721,196.384 264.209,197.150 264.532 C 197.508 264.682,197.800 264.894,197.800 265.003 C 197.800 265.120,198.687 265.200,200.000 265.200 C 201.313 265.200,202.200 265.120,202.200 265.003 C 202.200 264.894,202.493 264.682,202.850 264.532 C 203.616 264.209,205.200 262.721,205.200 262.325 C 205.200 262.173,205.335 261.937,205.500 261.800 C 205.765 261.580,205.800 255.822,205.800 212.182 C 205.800 168.380,205.834 162.826,206.100 162.928 C 206.265 162.991,206.400 163.110,206.400 163.193 C 206.400 163.556,224.445 181.400,224.813 181.400 C 224.924 181.400,225.234 181.544,225.502 181.720 C 226.187 182.168,229.213 182.168,229.898 181.720 C 230.166 181.544,230.527 181.400,230.699 181.400 C 230.872 181.400,231.064 181.265,231.128 181.100 C 231.191 180.935,231.320 180.800,231.415 180.800 C 231.699 180.800,233.000 179.408,233.000 179.103 C 233.000 178.947,233.149 178.737,233.330 178.635 C 233.826 178.358,233.833 173.989,233.339 173.443 C 233.152 173.237,233.000 172.997,233.000 172.909 C 233.000 172.700,212.343 151.946,201.957 141.719 C 200.011 139.803,199.923 139.803,198.000 141.732 M244.200 309.500 L 244.200 319.000 245.300 319.000 L 246.400 319.000 246.400 309.500 L 246.400 300.000 245.300 300.000 L 244.200 300.000 244.200 309.500 M237.179 300.925 C 236.431 301.827,237.023 303.400,238.110 303.400 C 238.984 303.400,239.400 302.949,239.400 302.000 C 239.400 300.745,237.922 300.030,237.179 300.925 M125.600 309.988 L 125.600 319.028 129.850 318.964 C 134.051 318.901,134.112 318.894,135.152 318.346 C 138.616 316.520,138.623 311.492,135.163 310.003 L 134.124 309.556 134.810 309.267 C 138.253 307.820,137.843 302.640,134.194 301.500 C 133.397 301.251,132.082 301.130,129.350 301.053 L 125.600 300.948 125.600 309.988 M223.800 310.000 L 223.800 319.000 224.900 319.000 L 226.000 319.000 226.000 315.200 L 226.000 311.400 229.700 311.400 L 233.400 311.400 233.400 310.400 L 233.400 309.400 229.700 309.400 L 226.000 309.400 226.000 306.200 L 226.000 303.000 229.900 303.000 L 233.800 303.000 233.800 302.000 L 233.800 301.000 228.800 301.000 L 223.800 301.000 223.800 310.000 M133.257 303.560 C 134.675 304.188,135.157 305.559,134.507 307.115 C 134.054 308.199,132.975 308.579,129.913 308.734 L 127.400 308.862 127.400 305.904 L 127.400 302.946 129.850 303.041 C 131.763 303.115,132.510 303.229,133.257 303.560 M145.752 305.987 C 145.243 306.311,144.675 306.805,144.491 307.086 C 144.041 307.772,143.800 307.563,143.800 306.488 L 143.800 305.600 142.800 305.600 L 141.800 305.600 141.800 312.300 L 141.800 319.000 142.883 319.000 L 143.965 319.000 144.038 314.850 C 144.144 308.887,145.075 307.273,148.322 307.423 C 149.590 307.482,149.512 307.544,149.668 306.350 L 149.792 305.400 148.235 305.400 C 146.856 305.400,146.572 305.467,145.752 305.987 M155.500 305.877 C 151.837 307.612,150.913 314.267,153.879 317.551 C 156.022 319.923,160.912 319.917,162.923 317.540 C 165.132 314.928,165.144 309.783,162.947 307.287 C 161.273 305.385,157.891 304.745,155.500 305.877 M189.996 305.950 C 186.881 307.543,187.346 310.915,190.887 312.406 C 194.736 314.028,195.813 314.858,195.458 315.929 C 194.875 317.690,191.878 317.930,188.350 316.499 C 188.042 316.374,188.000 316.489,188.000 317.463 L 188.000 318.568 189.050 318.925 C 192.115 319.966,196.325 319.086,197.300 317.200 C 198.643 314.604,197.284 312.705,192.873 311.013 C 190.855 310.239,190.151 309.639,190.237 308.768 C 190.404 307.095,192.480 306.803,196.322 307.910 C 196.775 308.041,197.606 306.516,197.260 306.188 C 196.290 305.268,191.630 305.115,189.996 305.950 M204.099 305.870 C 199.510 308.007,199.555 316.485,204.168 318.742 C 205.582 319.434,208.527 319.526,210.450 318.940 L 211.600 318.589 211.600 317.525 L 211.600 316.462 210.464 316.846 C 206.292 318.254,203.000 316.553,203.000 312.990 C 203.000 312.875,204.825 312.800,207.600 312.800 L 212.200 312.800 212.200 311.436 C 212.200 306.686,208.219 303.951,204.099 305.870 M253.899 305.870 C 249.310 308.007,249.355 316.485,253.968 318.742 C 255.382 319.434,258.327 319.526,260.250 318.940 L 261.400 318.589 261.400 317.525 L 261.400 316.462 260.264 316.846 C 256.092 318.254,252.800 316.553,252.800 312.990 C 252.800 312.875,254.625 312.800,257.400 312.800 L 262.000 312.800 262.000 311.436 C 262.000 306.686,258.019 303.951,253.899 305.870 M267.196 305.950 C 264.081 307.543,264.546 310.915,268.087 312.406 C 271.936 314.028,273.013 314.858,272.658 315.929 C 272.075 317.690,269.078 317.930,265.550 316.499 C 265.242 316.374,265.200 316.489,265.200 317.463 L 265.200 318.568 266.250 318.925 C 269.315 319.966,273.525 319.086,274.500 317.200 C 275.843 314.604,274.484 312.705,270.073 311.013 C 268.055 310.239,267.351 309.639,267.437 308.768 C 267.604 307.095,269.680 306.803,273.522 307.910 C 273.975 308.041,274.806 306.516,274.460 306.188 C 273.490 305.268,268.830 305.115,267.196 305.950 M166.800 305.692 C 166.800 305.780,170.102 317.932,170.323 318.659 C 170.416 318.964,170.626 319.009,171.734 318.959 L 173.036 318.900 174.394 314.694 C 175.141 312.381,175.867 309.971,176.009 309.340 L 176.266 308.192 176.918 310.446 C 177.277 311.686,178.008 314.095,178.544 315.800 L 179.517 318.900 180.840 318.959 L 182.163 319.017 182.371 318.359 C 182.797 317.010,185.800 306.009,185.800 305.799 C 185.800 305.659,185.389 305.602,184.662 305.640 L 183.523 305.700 183.162 307.100 C 182.964 307.870,182.361 310.210,181.822 312.300 C 181.284 314.390,180.796 315.965,180.738 315.800 C 180.680 315.635,180.318 314.465,179.934 313.200 C 179.549 311.935,178.863 309.707,178.409 308.250 L 177.583 305.600 176.341 305.603 L 175.100 305.607 174.106 308.753 C 173.559 310.484,172.824 312.845,172.472 314.000 C 172.120 315.155,171.786 315.965,171.729 315.800 C 171.589 315.396,169.200 305.873,169.200 305.720 C 169.200 305.654,168.660 305.600,168.000 305.600 C 167.340 305.600,166.800 305.641,166.800 305.692 M237.000 312.300 L 237.000 319.000 238.100 319.000 L 239.200 319.000 239.200 312.300 L 239.200 305.600 238.100 305.600 L 237.000 305.600 237.000 312.300 M159.588 307.397 C 162.858 308.334,163.269 315.466,160.140 316.981 C 157.247 318.381,154.765 316.651,154.461 313.023 C 154.118 308.928,156.358 306.470,159.588 307.397 M208.125 307.612 C 209.078 308.074,209.800 309.259,209.800 310.363 L 209.800 311.000 206.421 311.000 L 203.042 311.000 203.189 310.350 C 203.778 307.750,205.936 306.553,208.125 307.612 M257.925 307.612 C 258.878 308.074,259.600 309.259,259.600 310.363 L 259.600 311.000 256.221 311.000 L 252.842 311.000 252.989 310.350 C 253.578 307.750,255.736 306.553,257.925 307.612 M133.617 311.160 C 134.763 311.715,135.200 312.457,135.200 313.851 C 135.200 316.255,133.967 317.048,130.050 317.166 L 127.400 317.246 127.400 313.897 L 127.400 310.548 130.063 310.638 C 132.259 310.713,132.882 310.804,133.617 311.160 " stroke="none" fill="#000000" fill-rule="evenodd"></path></g></svg>